<svg width="68" height="71" viewBox="0 0 68 71" fill="none" xmlns="http://www.w3.org/2000/svg">
<path fill-rule="evenodd" clip-rule="evenodd" d="M11 5C7.68629 5 5 7.68629 5 11V58C5 61.3137 7.68629 64 11 64H51C54.3137 64 57 61.3137 57 58V11C57 7.68629 54.3137 5 51 5H11ZM12 9C9.79086 9 8 10.7909 8 13V56C8 58.2091 9.79086 60 12 60H49C51.2091 60 53 58.2091 53 56V13C53 10.7909 51.2091 9 49 9H12Z" fill="#FD5222"/>
<path fill-rule="evenodd" clip-rule="evenodd" d="M37.2071 46.7071C37.5976 47.0976 37.5976 47.7308 37.2071 48.1213L31.8284 53.5C30.6569 54.6716 28.7574 54.6716 27.5858 53.5L25.7071 51.6213C25.3166 51.2308 25.3166 50.5976 25.7071 50.2071V50.2071C26.0976 49.8166 26.7308 49.8166 27.1213 50.2071L29 52.0858C29.3905 52.4763 30.0237 52.4763 30.4142 52.0858L35.7929 46.7071C36.1834 46.3166 36.8166 46.3166 37.2071 46.7071V46.7071Z" fill="#FD5222" stroke="#FD5222"/>
<path d="M18.376 39.288C17.384 39.288 16.448 39.12 15.568 38.784C14.688 38.432 13.912 37.92 13.24 37.248C12.584 36.576 12.064 35.744 11.68 34.752C11.296 33.744 11.104 32.584 11.104 31.272C11.104 29.976 11.304 28.824 11.704 27.816C12.104 26.792 12.64 25.928 13.312 25.224C13.984 24.52 14.768 23.984 15.664 23.616C16.56 23.248 17.504 23.064 18.496 23.064C19.504 23.064 20.408 23.272 21.208 23.688C22.008 24.088 22.672 24.56 23.2 25.104L21.328 27.36C20.928 26.992 20.504 26.696 20.056 26.472C19.624 26.232 19.128 26.112 18.568 26.112C18.04 26.112 17.536 26.232 17.056 26.472C16.592 26.696 16.184 27.024 15.832 27.456C15.496 27.888 15.224 28.416 15.016 29.04C14.824 29.664 14.728 30.368 14.728 31.152C14.728 32.768 15.072 34.024 15.76 34.92C16.448 35.8 17.368 36.24 18.52 36.24C19.16 36.24 19.728 36.104 20.224 35.832C20.736 35.544 21.184 35.192 21.568 34.776L23.44 36.984C22.128 38.52 20.44 39.288 18.376 39.288ZM25.8168 39V23.352H31.1928C32.0568 23.352 32.8648 23.44 33.6168 23.616C34.3688 23.776 35.0248 24.056 35.5848 24.456C36.1448 24.84 36.5848 25.36 36.9048 26.016C37.2408 26.656 37.4088 27.448 37.4088 28.392C37.4088 29.304 37.2408 30.096 36.9048 30.768C36.5848 31.44 36.1448 31.992 35.5848 32.424C35.0248 32.856 34.3768 33.176 33.6408 33.384C32.9048 33.592 32.1208 33.696 31.2888 33.696H29.3448V39H25.8168ZM29.3448 30.888H31.0728C32.9928 30.888 33.9528 30.056 33.9528 28.392C33.9528 27.576 33.6968 27 33.1848 26.664C32.6728 26.328 31.9368 26.16 30.9768 26.16H29.3448V30.888ZM42.5903 31.08L42.2063 32.52H45.5423L45.1823 31.08C44.9583 30.296 44.7423 29.464 44.5343 28.584C44.3263 27.704 44.1183 26.856 43.9103 26.04H43.8143C43.6223 26.872 43.4223 27.728 43.2143 28.608C43.0223 29.472 42.8143 30.296 42.5903 31.08ZM36.9263 39L41.8223 23.352H46.0703L50.9663 39H47.2223L46.2623 35.28H41.4863L40.5263 39H36.9263Z" fill="#FD5222"/>
</svg>
