<svg width="71" height="71" viewBox="0 0 71 71" fill="none" xmlns="http://www.w3.org/2000/svg">
<path d="M13.6301 36.3723H16.9582C17.328 36.3723 17.5129 36.5571 17.5129 36.9269V54.1223C17.5129 54.492 17.328 54.6769 16.9582 54.6769H13.6301C13.2603 54.6769 13.0754 54.492 13.0754 54.1223V36.9269C13.0754 36.5571 13.2603 36.3723 13.6301 36.3723Z" fill="#FD5222"/>
<path d="M26.9426 36.3723H30.2707C30.6405 36.3723 30.8254 36.5571 30.8254 36.9269V54.1223C30.8254 54.492 30.6405 54.6769 30.2707 54.6769H26.9426C26.5728 54.6769 26.3879 54.492 26.3879 54.1223V36.9269C26.3879 36.5571 26.5728 36.3723 26.9426 36.3723Z" fill="#FD5222"/>
<path d="M40.2551 36.3723H43.5832C43.953 36.3723 44.1379 36.5571 44.1379 36.9269V54.1223C44.1379 54.492 43.953 54.6769 43.5832 54.6769H40.2551C39.8853 54.6769 39.7004 54.492 39.7004 54.1223V36.9269C39.7004 36.5571 39.8853 36.3723 40.2551 36.3723Z" fill="#FD5222"/>
<path d="M53.4982 36.3723H56.8264C57.1961 36.3723 57.381 36.5571 57.381 36.9269V54.1223C57.381 54.492 57.1961 54.6769 56.8264 54.6769H53.4982C53.1284 54.6769 52.9435 54.492 52.9435 54.1223V36.9269C52.9435 36.5571 53.1284 36.3723 53.4982 36.3723Z" fill="#FD5222"/>
<path d="M31.8654 22.5051C31.8654 22.9421 31.9515 23.3749 32.1188 23.7787C32.286 24.1825 32.5312 24.5494 32.8402 24.8584C33.1493 25.1675 33.5161 25.4126 33.9199 25.5799C34.3237 25.7471 34.7565 25.8332 35.1935 25.8332C35.6306 25.8332 36.0634 25.7471 36.4672 25.5799C36.871 25.4126 37.2378 25.1675 37.5469 24.8584C37.8559 24.5494 38.1011 24.1825 38.2683 23.7787C38.4356 23.3749 38.5217 22.9421 38.5217 22.5051C38.5217 21.6224 38.171 20.7759 37.5469 20.1517C36.9227 19.5276 36.0762 19.1769 35.1935 19.1769C34.3109 19.1769 33.4644 19.5276 32.8402 20.1517C32.2161 20.7759 31.8654 21.6224 31.8654 22.5051Z" fill="#FD5222"/>
<path d="M8.08319 58.5598H62.4426C62.8124 58.5598 62.9973 58.7446 62.9973 59.1144V62.4426C62.9973 62.8124 62.8124 62.9973 62.4426 62.9973H8.08319C7.7134 62.9973 7.5285 62.8124 7.5285 62.4426V59.1144C7.5285 58.7446 7.7134 58.5598 8.08319 58.5598Z" fill="#FD5222"/>
<path d="M35.9958 7.77672L39.3745 9.46574L35.9958 7.77672Z" fill="#FD5222"/>
<path d="M62.6214 21.0892L35.9964 7.77673C35.8424 7.69972 35.6726 7.65962 35.5003 7.65962C35.3281 7.65962 35.1583 7.69972 35.0042 7.77673L8.37925 21.0892C8.19491 21.1813 8.03987 21.3229 7.93148 21.4982C7.8231 21.6734 7.76567 21.8754 7.76562 22.0814V31.3801C7.76562 31.6743 7.88251 31.9565 8.09055 32.1645C8.2986 32.3726 8.58078 32.4894 8.875 32.4894H62.125C62.4192 32.4894 62.7014 32.3726 62.9094 32.1645C63.1175 31.9565 63.2344 31.6743 63.2344 31.3801V22.0814C63.2344 21.8754 63.1771 21.6735 63.0688 21.4983C62.9606 21.323 62.8056 21.1814 62.6214 21.0892ZM59.3516 28.6066H11.6484V23.7954L35.5 11.8696L59.3516 23.7954V28.6066Z" fill="#FD5222"/>
</svg>
