<svg width="70" height="71" viewBox="0 0 70 71" fill="none" xmlns="http://www.w3.org/2000/svg">
<path d="M53.1935 37.2292C52.2484 37.2292 51.4852 36.4499 51.4852 35.5C51.4852 31.0494 49.7676 26.8724 46.6576 23.7243C45.9755 23.0394 45.2386 22.4132 44.4543 21.8522C43.6809 21.3057 43.4929 20.2307 44.0372 19.4483C44.5755 18.6651 45.6469 18.4699 46.4169 19.026C46.4172 19.0262 46.4175 19.0264 46.4178 19.0266L46.2713 19.2292C47.1982 19.8866 48.0861 20.636 48.8898 21.4578C52.6037 25.2116 54.6454 30.2013 54.6454 35.5066C54.6519 36.3152 53.9972 36.9792 53.1935 36.9792C52.3898 36.9792 51.7352 36.3152 51.7352 35.5C51.7352 30.9836 49.9917 26.7434 46.8352 23.5484L53.1935 37.2292ZM53.1935 37.2292C54.1372 37.2292 54.9024 36.4511 54.8954 35.5056L53.1935 37.2292ZM30.1811 25.4342L30.2531 25.5602H30.3982H39.5889V25.3102L39.806 25.4342L44.4078 17.381L44.4787 17.257L44.4078 17.1329L39.806 9.07969L39.734 8.95372H39.5889H30.3982H30.2531L30.1811 9.07969L25.5792 17.1329L25.5084 17.257L25.5792 17.381L30.1811 25.4342ZM37.7651 22.1019H32.222L29.4546 17.257L32.222 12.4121H37.7651L40.5325 17.257L37.7651 22.1019ZM22.5426 54.8346H22.6878L22.7597 54.7085L27.3551 46.6552L27.4259 46.5312L27.355 46.4073L22.7532 38.354L22.6812 38.2281H22.5361H13.3454H13.2003L13.1283 38.354L8.52647 46.4073L8.45559 46.5313L8.52647 46.6553L13.1283 54.7086L13.2003 54.8346H13.3454H22.5426ZM56.6417 54.8346H56.7868L56.8587 54.7086L61.4606 46.6553L61.5315 46.5313L61.4606 46.4073L56.8587 38.354L56.7868 38.2281H56.6417H47.4509H47.3059L47.2339 38.354L42.632 46.4073L42.5611 46.5313L42.632 46.6553L47.2339 54.7086L47.3059 54.8346H47.4509H56.6417ZM10.6439 25.5129L10.6439 25.5129C9.36809 28.6917 8.72038 32.0498 8.72038 35.5C8.72038 36.4499 9.48361 37.2292 10.4287 37.2292C11.381 37.2292 12.137 36.4492 12.137 35.5C12.137 29.3332 14.516 23.5326 18.8312 19.1817L18.8317 19.1812C19.7742 18.2252 20.8001 17.3538 21.8834 16.5866L21.884 16.5862C22.6506 16.0396 22.8381 14.9654 22.3015 14.1835L22.3009 14.1825C21.7622 13.4053 20.6981 13.2117 19.9227 13.759C18.6792 14.6353 17.4947 15.6375 16.4148 16.7328C13.909 19.2612 11.9656 22.2213 10.6439 25.5129ZM44.6619 56.4289L44.661 56.4292C38.5194 59.3229 31.4745 59.3229 25.3328 56.4294C24.4727 56.0206 23.4549 56.4002 23.0607 57.2679C22.6611 58.1331 23.0293 59.1624 23.8878 59.5637C27.3371 61.1902 31.1716 62.0463 34.9935 62.0463C38.8154 62.0463 42.6564 61.1902 46.1057 59.5637L46.1073 59.563C46.9569 59.1552 47.3259 58.1343 46.9332 57.2687L46.9321 57.2663C46.5315 56.4076 45.5221 56.0273 44.6619 56.4289ZM47.6928 16.3001L47.6938 16.3008C48.9303 17.1326 50.0909 18.1014 51.1559 19.1751C55.4712 23.5327 57.85 29.3333 57.85 35.5C57.85 36.4499 58.6132 37.2292 59.5583 37.2292C60.5034 37.2292 61.2667 36.4499 61.2667 35.5C61.2667 32.0564 60.619 28.6917 59.3431 25.5129L59.3431 25.5129C58.0214 22.221 56.0778 19.2675 53.5723 16.7328C52.3549 15.4981 51.0135 14.3898 49.594 13.4277C48.8095 12.8949 47.7458 13.1128 47.2229 13.9045C46.7006 14.6952 46.9116 15.7693 47.6928 16.3001ZM20.9199 21.275L20.9194 21.2755C17.1656 25.0763 15.0917 30.1292 15.0917 35.5C15.0917 36.4499 15.8549 37.2292 16.8 37.2292C17.7452 37.2292 18.5089 36.4497 18.5019 35.4925C18.5021 31.042 20.2134 26.8654 23.3294 23.7178C24.0136 23.0303 24.7544 22.3957 25.5323 21.846L25.5331 21.8454C26.2997 21.2988 26.4872 20.2247 25.9506 19.4427L25.9499 19.4418C25.4112 18.6645 24.347 18.4709 23.5716 19.0184L23.5702 19.0194C22.632 19.6915 21.7399 20.4499 20.9199 21.275ZM41.9656 50.5976L41.9649 50.598C37.5343 52.683 32.4533 52.6831 28.0227 50.5982C27.1627 50.1894 26.1447 50.5689 25.7505 51.4367C25.3509 52.302 25.7193 53.3316 26.5781 53.7328C29.1908 54.9579 32.0983 55.6103 34.9935 55.6103C37.8884 55.6103 40.7961 54.9646 43.4094 53.7325L43.411 53.7318C44.2606 53.324 44.6297 52.3031 44.2369 51.4375L44.2358 51.4351C43.8352 50.5764 42.8259 50.1961 41.9656 50.5976ZM23.4797 46.5313L20.7123 51.3762H15.1692L12.4018 46.5313L15.1692 41.6864H20.7123L23.4797 46.5313ZM57.5853 46.5313L54.8179 51.3762H49.2748L46.5074 46.5313L49.2748 41.6864H54.8179L57.5853 46.5313Z" fill="#FD5222" stroke="#FD5222" stroke-width="0.5"/>
</svg>
