<svg width="71" height="71" viewBox="0 0 71 71" fill="none" xmlns="http://www.w3.org/2000/svg">
<path d="M35.5 7C19.7853 7 7 19.7853 7 35.5C7 51.2147 19.7853 64 35.5 64C51.2147 64 64 51.2147 64 35.5C64 19.7853 51.2147 7 35.5 7ZM35.5 59.1143C22.479 59.1143 11.8857 48.5206 11.8857 35.5C11.8857 22.4794 22.479 11.8857 35.5 11.8857C48.521 11.8857 59.1143 22.4794 59.1143 35.5C59.1143 48.5206 48.521 59.1143 35.5 59.1143Z" fill="#FD5222"/>
<path d="M19 35.5L35.5 52L52 35.5L35.5 19L19 35.5ZM35.5 44.928L26.0715 35.5L35.5 26.072L44.9285 35.5L35.5 44.928Z" fill="#FD5222"/>
</svg>
