<svg width="71" height="71" viewBox="0 0 71 71" fill="none" xmlns="http://www.w3.org/2000/svg">
<path d="M28.4864 42.5136C30.3318 44.3591 32.9682 45.5455 36 45.5455C39.0318 45.5455 41.5364 44.3591 43.5136 42.5136C45.3591 40.6682 46.5455 38.0318 46.5455 35C46.5455 29.2 41.8 24.4545 36 24.4545C30.2 24.4545 25.4545 29.2 25.4545 35C25.4545 37.9 26.6409 40.5364 28.4864 42.5136ZM29.4091 33.6818H28.2227C28.4864 32.4955 28.8818 31.4409 29.5409 30.3864L30.3318 31.1773C30.8591 31.7045 31.65 31.7045 32.1773 31.1773C32.7045 30.65 32.7045 29.8591 32.1773 29.3318L31.3864 28.5409C32.3091 27.8818 33.4955 27.3545 34.6818 27.2227V28.4091C34.6818 29.2 35.2091 29.7273 36 29.7273C36.7909 29.7273 37.3182 29.2 37.3182 28.4091V27.2227C38.5045 27.4864 39.5591 27.8818 40.6136 28.5409L39.8227 29.3318C39.2955 29.8591 39.2955 30.65 39.8227 31.1773C40.35 31.7045 41.1409 31.7045 41.6682 31.1773L42.4591 30.3864C43.1182 31.3091 43.6455 32.4955 43.7773 33.6818H42.5909C41.8 33.6818 41.2727 34.2091 41.2727 35C41.2727 35.7909 41.8 36.3182 42.5909 36.3182H43.7773C43.5136 37.5045 43.1182 38.5591 42.4591 39.6136L41.6682 38.8227C41.1409 38.2955 40.35 38.2955 39.8227 38.8227C39.2955 39.35 39.2955 40.1409 39.8227 40.6682L40.6136 41.4591C39.6909 42.1182 38.5045 42.6455 37.3182 42.7773V41.5909C37.3182 40.8 36.7909 40.2727 36 40.2727C35.2091 40.2727 34.6818 40.8 34.6818 41.5909V42.7773C33.4955 42.5136 32.4409 42.1182 31.3864 41.4591L32.1773 40.6682C32.7045 40.1409 32.7045 39.35 32.1773 38.8227C31.65 38.2955 30.8591 38.2955 30.3318 38.8227L29.5409 39.6136C28.8818 38.6909 28.3545 37.5045 28.2227 36.3182H29.4091C30.2 36.3182 30.7273 35.7909 30.7273 35C30.7273 34.2091 30.2 33.6818 29.4091 33.6818ZM36 37.6364C37.45 37.6364 38.6364 36.45 38.6364 35C38.6364 33.55 37.45 32.3636 36 32.3636C34.55 32.3636 33.3636 33.55 33.3636 35C33.3636 36.45 34.55 37.6364 36 37.6364ZM57.0909 21.8182V13.9091H14.9091V56.0909H57.0909V48.1818C58.5409 48.1818 59.7273 46.9955 59.7273 45.5455V42.9091C59.7273 41.4591 58.5409 40.2727 57.0909 40.2727V29.7273C58.5409 29.7273 59.7273 28.5409 59.7273 27.0909V24.4545C59.7273 23.0045 58.5409 21.8182 57.0909 21.8182ZM54.4545 21.8182C53.0045 21.8182 51.8182 23.0045 51.8182 24.4545V27.0909C51.8182 28.5409 53.0045 29.7273 54.4545 29.7273V40.2727C53.0045 40.2727 51.8182 41.4591 51.8182 42.9091V45.5455C51.8182 46.9955 53.0045 48.1818 54.4545 48.1818V53.4545H17.5455V16.5455H54.4545V21.8182ZM59.7273 6H12.2727C9.37273 6 7 8.37273 7 11.2727V58.7273C7 61.6273 9.37273 64 12.2727 64H59.7273C62.6273 64 65 61.6273 65 58.7273V11.2727C65 8.37273 62.6273 6 59.7273 6ZM62.3636 58.7273C62.3636 60.1773 61.1773 61.3636 59.7273 61.3636H12.2727C10.8227 61.3636 9.63636 60.1773 9.63636 58.7273V11.2727C9.63636 9.82273 10.8227 8.63636 12.2727 8.63636H59.7273C61.1773 8.63636 62.3636 9.82273 62.3636 11.2727V58.7273Z" fill="#FD5222" stroke="#FD5222"/>
</svg>
