<svg width="133" height="48" viewBox="0 0 133 48" fill="none" xmlns="http://www.w3.org/2000/svg">
<path d="M37.6999 35.7718C22.8128 42.6914 13.5738 36.9019 7.65953 33.3856C7.29356 33.164 6.67154 33.4374 7.21123 34.0428C9.18155 36.3761 15.6387 42 24.0672 42C32.5015 42 37.5191 37.5053 38.1468 36.7212C38.7702 35.9438 38.33 35.5149 37.6999 35.7718ZM41.8809 33.5167C41.4811 33.0083 39.45 32.9135 38.1717 33.0668C36.8914 33.2158 34.9698 33.9799 35.1368 34.4388C35.2226 34.6107 35.3976 34.5336 36.2771 34.4563C37.1589 34.3704 39.6295 34.0659 40.1443 34.7231C40.6615 35.3849 39.3563 38.5375 39.118 39.0459C38.8876 39.5544 39.2059 39.6855 39.6385 39.3469C40.0652 39.0084 40.8376 38.1317 41.3559 36.8912C41.8707 35.6438 42.1848 33.9038 41.8809 33.5167Z" fill="#1D1616"/>
<path fill-rule="evenodd" clip-rule="evenodd" d="M28.1762 21.0849C28.1762 22.9257 28.2235 24.4608 27.2762 26.0954C26.5115 27.4246 25.3003 28.2419 23.947 28.2419C22.0996 28.2419 21.0238 26.8597 21.0238 24.8196C21.0238 20.7925 24.6979 20.0616 28.1762 20.0616V21.0849ZM33.0278 32.6013C32.7097 32.8804 32.2496 32.9004 31.891 32.7142C30.2941 31.4118 30.0098 30.8071 29.1302 29.5644C26.4913 32.2093 24.6236 33 21.1998 33C17.1533 33 14 30.5478 14 25.637C14 21.8027 16.1181 19.191 19.129 17.9152C21.7411 16.7853 25.3883 16.586 28.1762 16.2738V15.6624C28.1762 14.5392 28.264 13.2102 27.5942 12.2401C27.0054 11.3695 25.8822 11.0106 24.8942 11.0106C23.0605 11.0106 21.423 11.9343 21.0238 13.8481C20.9425 14.2735 20.6245 14.6922 20.1915 14.7121L15.5225 14.2204C15.1301 14.1339 14.697 13.8216 14.8053 13.2301C15.8812 7.67474 20.9898 6 25.564 6C27.9053 6 30.9638 6.61143 32.8111 8.35256C35.1524 10.4989 34.9291 13.363 34.9291 16.4797V23.8427C34.9291 26.0556 35.8629 27.0258 36.7425 28.222C37.0537 28.6473 37.1215 29.1591 36.7289 29.478C35.7478 30.282 34.002 31.7773 33.0412 32.6147L33.0278 32.6013Z" fill="#1D1616"/>
<path d="M37.6999 35.7718C22.8128 42.6914 13.5738 36.9019 7.65953 33.3856C7.29356 33.164 6.67154 33.4374 7.21123 34.0428C9.18155 36.3761 15.6387 42 24.0672 42C32.5015 42 37.5191 37.5053 38.1468 36.7212C38.7702 35.9438 38.33 35.5149 37.6999 35.7718ZM41.8809 33.5167C41.4811 33.0083 39.45 32.9135 38.1717 33.0668C36.8914 33.2158 34.9698 33.9799 35.1368 34.4388C35.2226 34.6107 35.3976 34.5336 36.2771 34.4563C37.1589 34.3704 39.6295 34.0659 40.1443 34.7231C40.6615 35.3849 39.3563 38.5375 39.118 39.0459C38.8876 39.5544 39.2059 39.6855 39.6385 39.3469C40.0652 39.0084 40.8376 38.1317 41.3559 36.8912C41.8707 35.6438 42.1848 33.9038 41.8809 33.5167Z" fill="#1D1616"/>
<path fill-rule="evenodd" clip-rule="evenodd" d="M28.1762 21.0849C28.1762 22.9257 28.2235 24.4608 27.2762 26.0954C26.5115 27.4246 25.3003 28.2419 23.947 28.2419C22.0996 28.2419 21.0238 26.8597 21.0238 24.8196C21.0238 20.7925 24.6979 20.0616 28.1762 20.0616V21.0849ZM33.0278 32.6013C32.7097 32.8804 32.2496 32.9004 31.891 32.7142C30.2941 31.4118 30.0098 30.8071 29.1302 29.5644C26.4913 32.2093 24.6236 33 21.1998 33C17.1533 33 14 30.5478 14 25.637C14 21.8027 16.1181 19.191 19.129 17.9152C21.7411 16.7853 25.3883 16.586 28.1762 16.2738V15.6624C28.1762 14.5392 28.264 13.2102 27.5942 12.2401C27.0054 11.3695 25.8822 11.0106 24.8942 11.0106C23.0605 11.0106 21.423 11.9343 21.0238 13.8481C20.9425 14.2735 20.6245 14.6922 20.1915 14.7121L15.5225 14.2204C15.1301 14.1339 14.697 13.8216 14.8053 13.2301C15.8812 7.67474 20.9898 6 25.564 6C27.9053 6 30.9638 6.61143 32.8111 8.35256C35.1524 10.4989 34.9291 13.363 34.9291 16.4797V23.8427C34.9291 26.0556 35.8629 27.0258 36.7425 28.222C37.0537 28.6473 37.1215 29.1591 36.7289 29.478C35.7478 30.282 34.002 31.7773 33.0412 32.6147L33.0278 32.6013Z" fill="#1D1616"/>
<path d="M53.5981 25.08L53.2141 26.52H56.5501L56.1901 25.08C55.9661 24.296 55.7501 23.464 55.5421 22.584C55.3341 21.704 55.1261 20.856 54.9181 20.04H54.8221C54.6301 20.872 54.4301 21.728 54.2221 22.608C54.0301 23.472 53.8221 24.296 53.5981 25.08ZM47.9341 33L52.8301 17.352H57.0781L61.9741 33H58.2301L57.2701 29.28H52.4941L51.5341 33H47.9341ZM63.3959 33V21.096H66.2759L66.5159 22.632H66.6119C67.1079 22.136 67.6359 21.712 68.1959 21.36C68.7559 20.992 69.4279 20.808 70.2119 20.808C71.0599 20.808 71.7399 20.984 72.2519 21.336C72.7799 21.672 73.1959 22.16 73.4999 22.8C74.0279 22.256 74.5799 21.792 75.1559 21.408C75.7479 21.008 76.4439 20.808 77.2439 20.808C78.5239 20.808 79.4599 21.24 80.0519 22.104C80.6599 22.952 80.9639 24.12 80.9639 25.608V33H77.4359V26.064C77.4359 25.2 77.3159 24.608 77.0759 24.288C76.8519 23.968 76.4839 23.808 75.9719 23.808C75.3799 23.808 74.6999 24.192 73.9319 24.96V33H70.4039V26.064C70.4039 25.2 70.2839 24.608 70.0439 24.288C69.8199 23.968 69.4519 23.808 68.9399 23.808C68.3319 23.808 67.6599 24.192 66.9239 24.96V33H63.3959ZM86.9741 33.288C86.4301 33.288 85.9341 33.192 85.4861 33C85.0541 32.824 84.6861 32.576 84.3821 32.256C84.0781 31.92 83.8381 31.536 83.6621 31.104C83.5021 30.672 83.4221 30.2 83.4221 29.688C83.4221 28.44 83.9501 27.464 85.0061 26.76C86.0621 26.056 87.7661 25.584 90.1181 25.344C90.0861 24.816 89.9261 24.4 89.6381 24.096C89.3661 23.776 88.9021 23.616 88.2461 23.616C87.7341 23.616 87.2221 23.712 86.7101 23.904C86.2141 24.096 85.6781 24.36 85.1021 24.696L83.8301 22.368C84.5981 21.904 85.3981 21.528 86.2301 21.24C87.0781 20.952 87.9741 20.808 88.9181 20.808C90.4541 20.808 91.6221 21.248 92.4221 22.128C93.2381 22.992 93.6461 24.344 93.6461 26.184V33H90.7661L90.5261 31.776H90.4301C89.9181 32.224 89.3821 32.592 88.8221 32.88C88.2621 33.152 87.6461 33.288 86.9741 33.288ZM88.1741 30.552C88.5741 30.552 88.9181 30.464 89.2061 30.288C89.4941 30.112 89.7981 29.864 90.1181 29.544V27.456C88.8701 27.632 88.0061 27.888 87.5261 28.224C87.0461 28.56 86.8061 28.96 86.8061 29.424C86.8061 29.808 86.9261 30.096 87.1661 30.288C87.4221 30.464 87.7581 30.552 88.1741 30.552ZM95.9823 33V31.104L100.974 23.856H96.5343V21.096H105.366V22.968L100.374 30.24H105.534V33H95.9823ZM112.547 33.288C111.795 33.288 111.067 33.152 110.363 32.88C109.659 32.592 109.035 32.184 108.491 31.656C107.963 31.128 107.539 30.48 107.219 29.712C106.899 28.928 106.739 28.04 106.739 27.048C106.739 26.056 106.899 25.176 107.219 24.408C107.539 23.624 107.963 22.968 108.491 22.44C109.035 21.912 109.659 21.512 110.363 21.24C111.067 20.952 111.795 20.808 112.547 20.808C113.299 20.808 114.019 20.952 114.707 21.24C115.411 21.512 116.027 21.912 116.555 22.44C117.099 22.968 117.531 23.624 117.851 24.408C118.171 25.176 118.331 26.056 118.331 27.048C118.331 28.04 118.171 28.928 117.851 29.712C117.531 30.48 117.099 31.128 116.555 31.656C116.027 32.184 115.411 32.592 114.707 32.88C114.019 33.152 113.299 33.288 112.547 33.288ZM112.547 30.432C113.267 30.432 113.811 30.128 114.179 29.52C114.547 28.912 114.731 28.088 114.731 27.048C114.731 26.008 114.547 25.184 114.179 24.576C113.811 23.968 113.267 23.664 112.547 23.664C111.811 23.664 111.259 23.968 110.891 24.576C110.539 25.184 110.363 26.008 110.363 27.048C110.363 28.088 110.539 28.912 110.891 29.52C111.259 30.128 111.811 30.432 112.547 30.432ZM120.748 33V21.096H123.628L123.868 22.608H123.964C124.476 22.128 125.036 21.712 125.644 21.36C126.252 20.992 126.964 20.808 127.78 20.808C129.076 20.808 130.012 21.232 130.588 22.08C131.18 22.928 131.476 24.104 131.476 25.608V33H127.948V26.064C127.948 25.2 127.828 24.608 127.588 24.288C127.364 23.968 126.996 23.808 126.484 23.808C126.036 23.808 125.652 23.912 125.332 24.12C125.012 24.312 124.66 24.592 124.276 24.96V33H120.748Z" fill="#1D1616"/>
</svg>
