<svg width="83" height="48" viewBox="0 0 83 48" fill="none" xmlns="http://www.w3.org/2000/svg">
<path d="M34.7083 19.7558C35.9733 19.8997 37.2385 20.1875 37.2065 21.7704V36.3113C37.2385 37.8942 35.9733 38.182 34.7083 38.326V38.9015H43.5V38.326C42.2351 38.182 40.9699 37.8942 41.0018 36.3113V21.7704C40.9699 20.1874 42.2351 19.8996 43.5 19.7558V19.1802H34.7083V19.7558V19.7558ZM14.229 8.47706L13.4966 8.86164L12.7937 9.27205L12.1206 9.70871L11.477 10.1697L10.8626 10.6538L10.277 11.1605L9.72095 11.6885L9.19336 12.2367L8.69461 12.8042L8.22425 13.3897L7.78283 13.993L7.36948 14.6118L6.98441 15.2463L6.62729 15.8939L6.29846 16.5548L5.99747 17.2275L5.72443 17.9115L5.47891 18.6047L5.26112 19.307L5.07062 20.0167L4.90785 20.7332L4.77205 21.4549L4.66398 22.1812L4.58243 22.9109L4.52806 23.6426L4.50044 24.3753L4.5 25.1041L4.52608 25.8245L4.57869 26.5355L4.65737 27.2371L4.76269 27.9282L4.8942 28.609L5.05147 29.2787L5.23437 29.9371L5.44402 30.5837L5.67931 31.218L5.94079 31.8397L6.22726 32.4487L6.53991 33.0434L6.87755 33.6249L7.24083 34.1917L7.62942 34.7442L8.04343 35.281L8.48309 35.8024L8.94795 36.3078L9.43767 36.7969L9.95271 37.2689L10.4925 37.7237L11.0576 38.1606L11.6473 38.5797L12.2625 38.9798L12.902 39.3608L13.5671 39.7219C14.9959 40.3527 16.8018 40.51 18.5007 40.4995C23.4752 40.347 27.8087 39.5549 32.0505 37.026V31.0816H31.4095C31.1348 34.9826 27.5643 38.7008 19.05 38.6713C13.3738 38.3971 8.70462 31.3584 8.33837 24.6856C7.88056 13.9906 13.4652 9.51148 19.5993 9.05437C24.3906 9.08503 30.0974 9.66399 30.4025 17.9212H32.0505V7.5H18.4982C16.8762 7.57988 15.6809 7.79778 14.229 8.47706V8.47706Z" fill="#1D1616"/>
<path d="M11.1902 38.904L10.5881 38.4761L10.0108 38.0295L9.45917 37.5647L8.93217 37.0818L8.4309 36.5808L7.95527 36.0635L7.50515 35.529L7.08055 34.9791L6.68256 34.4128L6.3102 33.8319L5.96423 33.236L5.64411 32.6263L5.35049 32.0026L5.08294 31.3657L4.84211 30.7162L4.62767 30.0547L4.44029 29.3806L4.27919 28.6958L4.14525 28.0007L4.0377 27.2948L3.9572 26.5788L3.90343 25.8539L3.87704 25.1198L3.87747 24.3775L3.9054 23.6313L3.96082 22.8862L4.04383 22.1432L4.15412 21.403L4.29233 20.6678L4.45836 19.9377L4.65242 19.214L4.87409 18.4978L5.12488 17.7908L5.40328 17.0933L5.71048 16.4065L6.04626 15.7315L6.41073 15.0698L6.80423 14.422L7.22631 13.7894L7.67742 13.1727L8.15864 12.5741L8.66812 11.9938L9.2075 11.4333L9.77622 10.8931L10.3747 10.3749L11.0028 9.87986L11.6604 9.40887L12.3477 8.9625L13.0658 8.54314L13.5121 8.30885C7.05229 9.96375 0.356251 14.6239 0.502348 24.7861C0.644174 31.6093 5.42398 37.3285 12.133 39.5L11.8179 39.3121L11.1902 38.904ZM63.4916 15.2823H66.1342V17.7569H82.4947V7.5H66.1858L69.9223 11.139L66.1342 14.8283H63.4916L67.2798 11.139L63.5433 7.5H63.1205V9.97545H60.4779V7.5H34.1227V17.7569H60.4253L56.6897 14.1188L60.4779 10.4296H63.1205L59.3323 14.1188L63.0679 17.7569H63.4916V15.2823ZM66.5036 15.2499L70.025 11.7329V14.289L66.5036 17.6945V15.2499V15.2499ZM63.5201 8.13002L66.4757 11.0818L65.3102 12.2458L63.52 10.4581V8.13002H63.5201V8.13002ZM60.1084 10.0079L56.5869 13.5249V10.9687L60.1084 7.56322V10.0079V10.0079ZM63.092 17.1278L60.1364 14.176L61.3019 13.012L63.0921 14.7997V17.1278H63.092V17.1278ZM74.8504 20.0992C77.7939 20.1181 81.3002 20.474 81.4874 25.5483H82.5V19.144H74.1738C69.6181 19.369 63.094 21.8967 63.2069 29.7615C63.3196 35.1733 68.1566 39.4614 74.175 39.4238C77.2316 39.3301 79.8937 38.8433 82.5 37.2892V33.6361H82.1064C81.9373 36.0334 79.7438 38.3184 74.5129 38.3003C71.0255 38.1317 68.1566 33.8063 67.9316 29.7055C67.6505 23.1329 71.0819 20.3802 74.8504 20.0992V20.0992ZM55.9594 28.7645C59.2583 28.3505 60.7403 26.17 60.7882 23.7987C60.5013 20.313 56.6765 19.1671 54.382 19.2149H45.1546V19.7878C46.4134 19.9311 47.6724 20.2176 47.6406 21.7933V36.2676C47.6724 37.8434 46.4134 38.1298 45.1546 38.2731V38.846H49.4573V38.8392H53.7602C58.1586 38.6483 61.4575 36.9772 61.5054 33.8257C61.6644 30.3242 58.6686 29.2099 55.9594 28.7645V28.7645ZM51.5131 20.2641C53.6486 19.8189 56.6923 20.6628 57.0591 23.7986C57.0431 26.5997 57.2182 28.6369 51.561 28.3347H51.5131V20.2641V20.2641ZM53.6173 37.7416H51.5131V29.3852C54.0789 29.5443 57.4094 29.3215 57.5849 33.7304C57.5849 35.5926 56.3422 37.6459 53.6173 37.7416V37.7416Z" fill="#1D1616"/>
</svg>
