<svg width="83" height="32" viewBox="0 0 83 32" fill="none" xmlns="http://www.w3.org/2000/svg">
<path fill-rule="evenodd" clip-rule="evenodd" d="M1.09701 13.2748C1.6581 13.2748 2.7813 13.5715 4.46559 13.5715C9.51795 13.5715 11.5883 10.6052 11.5883 7.15655C11.5883 3.07809 9.06209 0.704692 4.46559 0.704692C3.23766 0.704692 1.83416 0.890218 1.09701 1.00143V13.2748V13.2748ZM5.02718 11.0131C4.46608 11.0131 4.18529 11.0131 3.97481 10.9019V3.26309H5.02718C6.71147 3.26309 8.57082 4.37521 8.57082 7.15655C8.57082 10.1972 6.5005 11.0131 5.02718 11.0131ZM16.9214 6.04444C18.0441 6.04444 18.3249 7.15655 18.3249 7.63882H15.4127C15.4127 6.86034 15.9743 6.04444 16.9214 6.04444ZM20.0097 10.7907C19.5534 11.0131 18.7818 11.1987 17.9394 11.1987C16.6411 11.1987 15.694 10.7907 15.5185 9.71548H20.8516C20.9569 9.52995 20.9569 9.23321 20.9569 8.52905C20.9569 6.15565 19.8342 3.96778 17.0267 3.96778C14.1848 3.96778 12.711 6.22997 12.711 8.82526C12.711 11.7916 14.6756 13.5715 17.483 13.5715C19.1673 13.5715 19.904 13.0893 20.3953 12.9786L20.0097 10.7907V10.7907ZM58.5354 6.04444C59.6586 6.04444 59.9389 7.15655 59.9389 7.63882H57.0262C57.0267 6.86034 57.5888 6.04444 58.5354 6.04444ZM61.6237 10.7907C61.1329 11.0131 60.3953 11.1987 59.5539 11.1987C58.2551 11.1987 57.3075 10.7907 57.1324 9.71548H62.4656C62.5359 9.52995 62.5359 9.23321 62.5359 8.52905C62.5359 6.15565 61.4137 3.96778 58.6062 3.96778C55.7998 3.96778 54.291 6.22997 54.291 8.82526C54.291 11.7916 56.2556 13.5715 59.0975 13.5715C60.7818 13.5715 61.5189 13.0893 61.9753 12.9786L61.6237 10.7907V10.7907ZM22.2551 13.386H25.1673V0.407949H22.2551V13.386ZM31.0621 11.3099C30.115 11.3099 29.483 10.309 29.483 8.71457C29.483 7.52814 29.9394 6.23049 31.0621 6.23049C32.1848 6.23049 32.5708 7.52814 32.5708 8.71457C32.5708 10.3084 32.0092 11.3099 31.0621 11.3099ZM30.9569 13.5715C33.3075 13.5715 35.5534 11.9771 35.5534 8.63973C35.5534 6.63792 34.4307 3.96778 31.1673 3.96778C27.7988 3.96778 26.4656 6.52618 26.4656 8.82526C26.4656 11.6066 28.3603 13.5715 30.9569 13.5715V13.5715ZM36.9569 13.386H39.8691V4.15331H36.9569V13.386V13.386ZM36.7813 1.7056C36.7813 2.78135 37.518 3.26309 38.3603 3.26309H38.4656C39.4835 3.26309 40.0446 2.59582 40.0446 1.7056C40.0446 0.704693 39.4127 0 38.4656 0C37.3429 0 36.7813 0.890221 36.7813 1.7056ZM42.1145 2.48461V4.15331H40.9918V6.45239H42.1145V10.1972C42.1145 12.2733 43.0611 13.4603 45.0272 13.4603C45.9738 13.4603 46.6052 13.2748 46.8157 13.2748V10.7907C46.7105 10.9019 46.3249 11.0131 46.1494 11.0131C45.6935 11.0131 44.9219 10.9019 44.9219 9.71548V6.45239H46.8157V4.15331H44.9219V1.7056L42.1145 2.48461V2.48461ZM48.8516 2.48461V4.15331H47.7284V6.45239H48.8516V10.1972C48.8516 12.2733 49.7284 13.4603 51.7633 13.4603C52.711 13.4603 53.3773 13.2748 53.5529 13.2748V10.7907C53.4476 10.9019 53.097 11.0131 52.8162 11.0131C52.4307 11.0131 51.693 10.9019 51.693 9.71548V6.45239H53.5529V4.15331H51.693V1.7056L48.8516 2.48461V2.48461ZM9.41272 25.3626C9.0616 25.5492 8.11446 25.8454 7.16683 25.8454C4.92145 25.8454 3.62319 24.2879 3.62319 21.9894C3.62319 19.7277 4.92145 18.1333 7.16683 18.1333C8.00923 18.1333 9.0616 18.4295 9.34239 18.5407L9.90349 16.0561C9.62269 15.9449 8.39476 15.5739 6.7808 15.5739C2.7808 15.5739 0.5 18.244 0.5 21.9888C0.5 25.5487 2.57032 28.4402 6.7808 28.4402C8.57032 28.4402 9.69302 27.9215 9.97381 27.8472L9.41272 25.3626V25.3626ZM48.2197 28.2183H51.1319V15.3514H48.2197V28.2183ZM14.9569 26.1416C14.0097 26.1416 13.3429 25.1771 13.3429 23.6944C13.3429 22.3963 13.7289 21.0981 14.9569 21.0981C16.0796 21.0981 16.4307 22.4706 16.4307 23.6944C16.4302 25.1771 15.8691 26.1416 14.9569 26.1416ZM14.8516 28.4402C17.2022 28.4402 19.4481 26.957 19.4481 23.5832C19.4481 21.5071 18.3254 18.8364 15.0272 18.8364C11.6591 18.8364 10.3608 21.5066 10.3608 23.6944C10.3603 26.5496 12.2197 28.4402 14.8516 28.4402ZM59.4481 28.2183H62.3599V19.0225H59.4481V28.2183ZM59.2721 16.5379C59.2721 17.6495 60.0097 18.2435 60.8511 18.2435C61.904 18.2435 62.4651 17.427 62.4651 16.5379C62.4651 15.6477 61.7987 14.9799 60.8511 14.9799C59.8342 14.9804 59.2721 15.7589 59.2721 16.5379ZM23.2022 20.0977V19.022H20.5708C20.5708 19.022 20.6756 20.9131 20.6756 22.1V28.2177H23.5529V22.9892C23.5529 21.8776 24.114 21.3948 24.7808 21.3948C25.5529 21.3948 26.0087 21.8776 26.0087 22.9892V28.2177H28.9209V22.7668C28.9209 20.3939 27.693 18.8364 25.7279 18.8364C24.6057 18.837 23.7638 19.4299 23.2022 20.0977V20.0977ZM66.8516 20.0977V19.022H64.2197C64.2197 19.022 64.3249 20.9131 64.3249 22.1V28.2177H67.2377V22.9892C67.2377 21.8776 67.7988 21.3948 68.4661 21.3948C69.2027 21.3948 69.6586 21.8776 69.6586 22.9892V28.2177H72.5713V22.7668C72.5713 20.3939 71.3429 18.8364 69.3783 18.8364C68.2546 18.837 67.3424 19.4299 66.8516 20.0977V20.0977ZM43.4481 19.022V24.4729C43.4481 25.2514 42.886 25.9561 42.1145 25.9561C41.3773 25.9561 40.9918 25.3621 40.9918 24.4729V19.022H38.0795V24.4729C38.0795 27.9215 39.9743 28.4402 41.2022 28.4402C42.5005 28.4402 43.3429 27.736 43.7289 27.2543C43.7289 27.5505 43.7993 28.2177 43.7993 28.2177H46.3249V19.022H43.4481V19.022ZM76.6057 23.5837C76.6057 22.1744 77.2721 21.2098 78.1848 21.2098C78.8511 21.2098 79.5185 21.8038 79.5185 22.7673V24.1767C79.5185 25.4749 78.7459 25.8454 78.1848 25.8454C77.0616 25.8454 76.6057 24.7697 76.6057 23.5837ZM74.3603 31.2958C74.7459 31.407 75.9394 32 77.5534 32C80.4302 32 82.4297 30.8874 82.4297 26.7346V21.8776C82.4297 20.3944 82.4297 19.5037 82.5 19.022H79.9743C79.9743 19.022 79.8691 19.6149 79.8691 19.9122C79.308 19.207 78.5703 18.8364 77.6237 18.8364C75.3773 18.8364 73.693 20.8019 73.693 23.6944C73.693 26.6603 75.4835 28.1434 77.3419 28.1434C78.2895 28.1434 79.0262 27.8472 79.518 27.2537V27.4393C79.518 29.3304 78.2895 29.6266 77.5534 29.6266C76.4302 29.6266 75.4835 29.2181 75.0267 28.8102L74.3603 31.2958V31.2958ZM34.2551 22.4706C33.5883 22.1744 33.1324 21.9888 33.1324 21.5809C33.1324 21.2093 33.5888 21.0981 33.9743 21.0981C34.9918 21.0981 35.7638 21.5066 35.9394 21.691L36.6057 19.5037C36.2202 19.3182 35.483 18.8364 33.9743 18.8364C31.7993 18.8364 30.3958 20.0977 30.3958 21.8776C30.3958 22.9892 30.887 24.065 32.9569 24.7691C33.7988 25.0653 34.0796 25.2509 34.0796 25.6593C34.0796 25.9556 33.6935 26.2523 33.0267 26.2523C32.0092 26.2523 30.9569 25.6593 30.6761 25.4738L30.0446 27.7355C30.3249 27.8467 31.1673 28.4396 33.0267 28.4396C35.3773 28.4396 36.7813 27.2537 36.7813 25.3616C36.7813 23.9901 35.9394 23.063 34.5359 22.5813L34.2551 22.4706V22.4706ZM53.3773 17.4276V19.022H52.2551V21.2836H53.3773V25.0659C53.3773 27.2543 54.29 28.4402 56.3598 28.4402C57.2017 28.4402 57.8686 28.2177 58.0441 28.144V25.7711C57.9738 25.7711 57.5883 25.8454 57.4117 25.8454C57.0262 25.8454 56.2546 25.8454 56.2546 24.5841V21.2836H58.1494V19.022H56.2546V16.6491L53.3773 17.4276V17.4276Z" fill="#1D1616"/>
</svg>
