<svg width="51" height="48" viewBox="0 0 51 48" fill="none" xmlns="http://www.w3.org/2000/svg">
<mask id="path-1-inside-1" fill="white">
<path d="M9.30264 24.8225C9.34516 24.9466 9.40213 24.8873 9.45909 24.8342C9.55835 24.7976 9.65556 24.7559 9.75035 24.7094C13.6118 22.5345 17.4722 20.3615 21.3315 18.1903C24.0595 16.6579 25.6329 14.367 25.8704 11.324C26.006 9.57932 25.8961 7.8128 25.8945 6.06112C25.8945 6.04239 25.8688 6.02288 25.8528 6.00026C25.7228 5.99479 25.6297 6.07828 25.5319 6.13446C22.055 8.09604 18.5781 10.0579 15.1012 12.02C13.726 12.794 12.3331 13.5306 11.3093 14.7751C10.1957 16.1296 9.45508 17.6621 9.3267 19.3685C9.18308 21.1725 9.29782 22.9998 9.30264 24.8225ZM26.0421 42C26.2941 41.8681 26.4586 41.7878 26.6182 41.698C30.1679 39.7037 33.7177 37.7096 37.2679 35.7158C38.3912 35.0869 39.4046 34.3417 40.1796 33.3172C41.4161 31.6787 42.025 29.856 41.9448 27.818C41.9047 26.7927 41.4465 26.0101 40.5166 25.5497C39.6709 25.1315 38.79 25.1456 37.9491 25.6176C35.9833 26.7209 34.0176 27.8211 32.0574 28.9368C30.6782 29.7218 29.2492 30.4271 28.1901 31.6639C27.1029 32.9372 26.3703 34.3706 26.1585 35.9974C25.9001 37.9598 26.1112 39.9417 26.0421 42ZM24.9301 41.9883C24.9301 40.356 24.9534 38.8095 24.9253 37.2646C24.8675 33.9875 23.3711 31.4906 20.4866 29.8162C18.0451 28.3985 15.5658 27.0424 13.105 25.6551C11.4634 24.7289 9.48958 25.5497 9.12772 27.356C8.92392 28.3704 9.06353 29.3847 9.35479 30.3842C10.0234 32.6699 11.4142 34.4039 13.527 35.5862C16.3492 37.1691 19.1697 38.7538 21.9887 40.3404L24.9301 41.9883ZM41.94 25.0722C41.94 24.3122 41.9536 23.6381 41.94 22.9655C41.9071 21.6297 42.0708 20.2845 41.8549 18.9581C41.4995 16.7648 40.4348 14.9311 38.6174 13.5844C37.0168 12.3984 35.1834 11.5627 33.4679 10.5484C33.1334 10.3502 33.1149 10.4704 33.1181 10.7645C33.1285 11.8304 33.1229 12.897 33.1181 13.9636C33.1181 14.8999 33.0796 15.8362 33.2786 16.7554C33.7287 18.8793 34.7798 20.6466 36.5594 21.9831C37.3874 22.6074 38.3246 23.0537 39.2192 23.5686C40.0882 24.0688 40.9772 24.5416 41.94 25.0722Z"/>
</mask>
<path d="M9.30264 24.8225C9.34516 24.9466 9.40213 24.8873 9.45909 24.8342C9.55835 24.7976 9.65556 24.7559 9.75035 24.7094C13.6118 22.5345 17.4722 20.3615 21.3315 18.1903C24.0595 16.6579 25.6329 14.367 25.8704 11.324C26.006 9.57932 25.8961 7.8128 25.8945 6.06112C25.8945 6.04239 25.8688 6.02288 25.8528 6.00026C25.7228 5.99479 25.6297 6.07828 25.5319 6.13446C22.055 8.09604 18.5781 10.0579 15.1012 12.02C13.726 12.794 12.3331 13.5306 11.3093 14.7751C10.1957 16.1296 9.45508 17.6621 9.3267 19.3685C9.18308 21.1725 9.29782 22.9998 9.30264 24.8225ZM26.0421 42C26.2941 41.8681 26.4586 41.7878 26.6182 41.698C30.1679 39.7037 33.7177 37.7096 37.2679 35.7158C38.3912 35.0869 39.4046 34.3417 40.1796 33.3172C41.4161 31.6787 42.025 29.856 41.9448 27.818C41.9047 26.7927 41.4465 26.0101 40.5166 25.5497C39.6709 25.1315 38.79 25.1456 37.9491 25.6176C35.9833 26.7209 34.0176 27.8211 32.0574 28.9368C30.6782 29.7218 29.2492 30.4271 28.1901 31.6639C27.1029 32.9372 26.3703 34.3706 26.1585 35.9974C25.9001 37.9598 26.1112 39.9417 26.0421 42ZM24.9301 41.9883C24.9301 40.356 24.9534 38.8095 24.9253 37.2646C24.8675 33.9875 23.3711 31.4906 20.4866 29.8162C18.0451 28.3985 15.5658 27.0424 13.105 25.6551C11.4634 24.7289 9.48958 25.5497 9.12772 27.356C8.92392 28.3704 9.06353 29.3847 9.35479 30.3842C10.0234 32.6699 11.4142 34.4039 13.527 35.5862C16.3492 37.1691 19.1697 38.7538 21.9887 40.3404L24.9301 41.9883ZM41.94 25.0722C41.94 24.3122 41.9536 23.6381 41.94 22.9655C41.9071 21.6297 42.0708 20.2845 41.8549 18.9581C41.4995 16.7648 40.4348 14.9311 38.6174 13.5844C37.0168 12.3984 35.1834 11.5627 33.4679 10.5484C33.1334 10.3502 33.1149 10.4704 33.1181 10.7645C33.1285 11.8304 33.1229 12.897 33.1181 13.9636C33.1181 14.8999 33.0796 15.8362 33.2786 16.7554C33.7287 18.8793 34.7798 20.6466 36.5594 21.9831C37.3874 22.6074 38.3246 23.0537 39.2192 23.5686C40.0882 24.0688 40.9772 24.5416 41.94 25.0722Z" fill="white"/>
<path d="M9.30264 24.8225L-55.6971 24.9942L-55.6688 35.7367L-52.1855 45.8989L9.30264 24.8225ZM9.45909 24.8342L-13.0588 -36.1407L-25.2959 -31.6216L-34.8418 -22.7308L9.45909 24.8342ZM9.75035 24.7094L38.3876 83.061L40.0423 82.2489L41.6483 81.3444L9.75035 24.7094ZM21.3315 18.1903L-10.5028 -38.4805L-10.521 -38.4702L-10.5392 -38.46L21.3315 18.1903ZM25.8704 11.324L90.6734 16.3816L90.6742 16.3712L90.675 16.3607L25.8704 11.324ZM25.8945 6.06112H-39.1055V6.09089L-39.1055 6.12066L25.8945 6.06112ZM25.8528 6.00026L78.8732 -31.6008L60.4321 -57.6041L28.5817 -58.9424L25.8528 6.00026ZM25.5319 6.13446L57.4711 62.7462L57.6792 62.6288L57.8865 62.5098L25.5319 6.13446ZM15.1012 12.02L46.9823 68.6645L47.0146 68.6463L47.0469 68.6281L15.1012 12.02ZM11.3093 14.7751L-38.8878 -26.5196L-38.8936 -26.5125L-38.8995 -26.5054L11.3093 14.7751ZM9.3267 19.3685L74.1217 24.5271L74.1329 24.3859L74.1435 24.2447L9.3267 19.3685ZM26.0421 42L-38.9214 39.8222L-42.6593 151.323L56.184 99.5888L26.0421 42ZM26.6182 41.698L-5.22075 -14.9701L-5.22627 -14.967L26.6182 41.698ZM37.2679 35.7158L5.5146 -21.0004L5.47672 -20.9792L5.43886 -20.958L37.2679 35.7158ZM40.1796 33.3172L92.0162 72.5342L92.0407 72.5018L92.0652 72.4694L40.1796 33.3172ZM41.9448 27.818L-23.0055 30.3594L-23.0052 30.3672L-23.0049 30.3749L41.9448 27.818ZM40.5166 25.5497L69.3543 -32.7031L69.3424 -32.7089L69.3306 -32.7148L40.5166 25.5497ZM37.9491 25.6176L69.7623 82.3002L69.7685 82.2968L37.9491 25.6176ZM32.0574 28.9368L64.2077 85.429L64.2127 85.4261L32.0574 28.9368ZM28.1901 31.6639L-21.1801 -10.6161L-21.2119 -10.5789L-21.2437 -10.5416L28.1901 31.6639ZM26.1585 35.9974L90.6024 44.4819L90.6084 44.4359L90.6144 44.3898L26.1585 35.9974ZM24.9301 41.9883L-6.83959 98.6953L89.9301 152.91V41.9883H24.9301ZM24.9253 37.2646L-40.0646 38.4102L-40.0643 38.4281L-40.064 38.4459L24.9253 37.2646ZM20.4866 29.8162L-12.1531 86.0269L-12.1462 86.0309L20.4866 29.8162ZM13.105 25.6551L-18.8343 82.2667L-18.8252 82.2719L-18.8161 82.277L13.105 25.6551ZM9.12772 27.356L72.8542 40.1597L72.8578 40.1418L72.8614 40.124L9.12772 27.356ZM9.35479 30.3842L-53.0498 48.5686L-53.0402 48.6014L-53.0307 48.6341L9.35479 30.3842ZM13.527 35.5862L45.3243 -21.1053L45.2966 -21.1208L45.2689 -21.1363L13.527 35.5862ZM21.9887 40.3404L-9.89177 96.9852L-9.83642 97.0164L-9.78102 97.0474L21.9887 40.3404ZM41.94 25.0722L10.5688 82.0006L106.94 135.107L106.94 25.0722H41.94ZM41.94 22.9655L106.927 21.6476L106.924 21.5064L106.92 21.3653L41.94 22.9655ZM41.8549 18.9581L-22.308 29.3561L-22.3046 29.3767L-22.3013 29.3973L41.8549 18.9581ZM38.6174 13.5844L77.3176 -38.6391L77.3135 -38.6422L38.6174 13.5844ZM33.4679 10.5484L0.341176 66.4735L0.36268 66.4862L0.384193 66.499L33.4679 10.5484ZM33.1181 10.7645L98.115 10.1285L98.1146 10.0919L98.1142 10.0554L33.1181 10.7645ZM33.1181 13.9636L-31.8812 13.6702L-31.8819 13.8169V13.9636H33.1181ZM33.2786 16.7554L96.8662 3.27902L96.8369 3.1406L96.8069 3.00232L33.2786 16.7554ZM36.5594 21.9831L75.6872 -29.9208L75.6408 -29.9557L75.5944 -29.9906L36.5594 21.9831ZM39.2192 23.5686L6.79192 79.9022L6.79413 79.9035L39.2192 23.5686ZM-52.1855 45.8989C-50.8386 49.8283 -46.363 62.135 -34.294 73.0644C-18.1777 87.6589 3.53275 92.7946 23.524 88.3363C38.2601 85.0499 47.7211 77.4492 49.7315 75.8596C52.3864 73.7604 54.9707 71.2716 53.76 72.3992L-34.8418 -22.7308C-36.081 -21.5766 -33.5252 -24.0381 -30.8983 -26.1151C-28.9159 -27.6825 -19.4825 -35.2662 -4.77306 -38.5467C15.1915 -42.9991 36.8762 -37.8685 52.968 -23.2961C65.0126 -12.3888 69.4651 -0.121234 70.7907 3.74617L-52.1855 45.8989ZM31.977 85.8092C34.1552 85.0048 36.2951 84.0879 38.3876 83.061L-18.8869 -33.6422C-16.984 -34.5761 -15.0385 -35.4096 -13.0588 -36.1407L31.977 85.8092ZM41.6483 81.3444C45.5007 79.1746 49.352 77.0067 53.2023 74.8406L-10.5392 -38.46C-14.4076 -36.2837 -18.2771 -34.1056 -22.1476 -31.9256L41.6483 81.3444ZM53.1659 74.861C73.0503 63.6911 88.5968 42.9881 90.6734 16.3816L-38.9325 6.26635C-38.2544 -2.42136 -35.4137 -11.9448 -29.5277 -20.7628C-23.7555 -29.4104 -16.6252 -35.0412 -10.5028 -38.4805L53.1659 74.861ZM90.675 16.3607C90.9671 12.6028 90.9482 9.46314 90.9291 7.90136C90.9201 7.16275 90.9023 6.32676 90.8986 6.13234C90.8916 5.76676 90.8943 5.81792 90.8945 6.00157L-39.1055 6.12066C-39.105 6.66998 -39.1003 7.16409 -39.0948 7.57625C-39.0895 7.98387 -39.0828 8.35046 -39.0776 8.62184C-39.075 8.75668 -39.0723 8.8907 -39.0703 8.99157C-39.0682 9.10133 -39.0666 9.18359 -39.0651 9.25939C-39.0623 9.41209 -39.0614 9.47248 -39.0612 9.48901C-39.0611 9.50165 -39.062 9.43329 -39.0619 9.30895C-39.0618 9.18328 -39.0607 8.98008 -39.0555 8.71644C-39.0502 8.45209 -39.0405 8.11191 -39.0221 7.7091C-39.0037 7.30579 -38.9762 6.8282 -38.9341 6.28728L90.675 16.3607ZM90.8945 6.06112C90.8945 -8.82089 85.8418 -19.8465 82.7988 -25.3603C79.761 -30.8648 76.595 -34.6491 75.6847 -35.7346C75.0807 -36.4548 73.4129 -38.3451 74.6777 -36.9068C75.0671 -36.4639 76.8677 -34.4286 78.8732 -31.6008L-27.1676 43.6013C-25.1541 46.4405 -23.3443 48.4867 -22.9455 48.9402C-21.6714 50.3891 -23.3298 48.5091 -23.9254 47.7989C-24.8272 46.7235 -27.9858 42.9489 -31.0183 37.4541C-34.056 31.9499 -39.1055 20.9338 -39.1055 6.06112H90.8945ZM28.5817 -58.9424C12.9783 -59.5981 1.26577 -54.5562 -4.57047 -51.4874C-7.20208 -50.1037 -9.20357 -48.8054 -9.35065 -48.7115C-10.1901 -48.1761 -8.48721 -49.2856 -6.82277 -50.2409L57.8865 62.5098C59.5999 61.5265 61.3511 60.3854 60.5607 60.8896C60.4626 60.9521 58.5109 62.2194 55.931 63.5759C50.1983 66.5902 38.5973 71.5931 23.1239 70.9429L28.5817 -58.9424ZM-6.40735 -50.4773C-9.88636 -48.5145 -13.3654 -46.5514 -16.8444 -44.5881L47.0469 68.6281C50.5216 66.6672 53.9963 64.7066 57.4711 62.7462L-6.40735 -50.4773ZM-16.7798 -44.6245C-16.8119 -44.6065 -16.8514 -44.5843 -16.9457 -44.5314C-17.0243 -44.4873 -17.1572 -44.4128 -17.298 -44.3336C-17.5791 -44.1754 -18.0319 -43.9195 -18.5591 -43.6135C-19.5917 -43.014 -21.2741 -42.0132 -23.2345 -40.693C-27.1909 -38.0286 -33.1442 -33.5015 -38.8878 -26.5196L61.5064 56.0698C56.7866 61.8071 52.0417 65.3437 49.3815 67.1352C48.0692 68.0189 47.0569 68.6127 46.7042 68.8174C46.5457 68.9094 46.1426 69.1371 46.9823 68.6645L-16.7798 -44.6245ZM-38.8995 -26.5054C-46.274 -17.5359 -54.1217 -3.69699 -55.4901 14.4923L74.1435 24.2447C73.0319 39.0211 66.6653 49.7952 61.5181 56.0556L-38.8995 -26.5054ZM-55.4683 14.2099C-55.7742 18.053 -55.7563 21.2667 -55.736 22.8978C-55.7262 23.6813 -55.7074 24.528 -55.7026 24.7652C-55.6946 25.1642 -55.6967 25.1422 -55.6971 24.9942L74.3024 24.6508C74.301 24.101 74.2955 23.6059 74.2895 23.1928C74.2865 22.985 74.2832 22.7914 74.2801 22.6177C74.2769 22.4447 74.2738 22.2838 74.271 22.1449C74.2683 22.012 74.2654 21.8733 74.2634 21.7745C74.2611 21.6652 74.2594 21.5818 74.258 21.5066C74.255 21.3544 74.2542 21.2941 74.254 21.2792C74.2538 21.2679 74.2548 21.338 74.2547 21.4651C74.2546 21.5934 74.2533 21.7998 74.2478 22.0675C74.2423 22.3358 74.2321 22.6805 74.213 23.0885C74.1939 23.497 74.1652 23.9802 74.1217 24.5271L-55.4683 14.2099ZM56.184 99.5888C56.0755 99.6456 55.997 99.686 55.9828 99.6933C55.9826 99.6935 55.9796 99.695 56.0178 99.6754C56.0438 99.662 56.1086 99.6287 56.1826 99.5905C56.4248 99.4654 57.3412 98.9934 58.4627 98.3631L-5.22627 -14.967C-4.72267 -15.25 -4.30024 -15.4778 -4.00033 -15.6372C-3.7154 -15.7886 -3.50183 -15.8988 -3.45298 -15.924C-3.42529 -15.9383 -3.40822 -15.9471 -3.43169 -15.935C-3.44303 -15.9292 -3.49721 -15.9013 -3.55084 -15.8737C-3.67166 -15.8115 -3.86525 -15.7115 -4.09968 -15.5888L56.184 99.5888ZM58.4572 98.3662C62.0035 96.3737 65.5501 94.3815 69.0969 92.3895L5.43886 -20.958C1.88538 -18.9623 -1.66783 -16.9663 -5.22075 -14.9701L58.4572 98.3662ZM69.0212 92.432C74.4564 89.389 83.8319 83.3522 92.0162 72.5342L-11.6569 -5.89974C-5.02275 -14.6687 2.32598 -19.2153 5.5146 -21.0004L69.0212 92.432ZM92.0652 72.4694C101.777 59.5985 107.601 43.2012 106.894 25.261L-23.0049 30.3749C-23.5507 16.5108 -18.9452 3.75887 -11.7059 -5.83489L92.0652 72.4694ZM106.895 25.2765C106.01 2.65868 93.507 -20.7464 69.3543 -32.7031L11.679 83.8025C2.44688 79.2323 -6.89766 71.6913 -13.7213 60.6552C-20.4026 49.8493 -22.6698 38.9382 -23.0055 30.3594L106.895 25.2765ZM69.3306 -32.7148C49.4613 -42.5409 25.8847 -42.1519 6.12969 -31.0615L69.7685 82.2968C61.7765 86.7834 51.8955 89.9673 40.7748 90.2315C29.6796 90.4951 19.7548 87.7964 11.7027 83.8143L69.3306 -32.7148ZM6.13586 -31.065C4.27152 -30.0186 2.07962 -28.7919 -0.0979202 -27.5524L64.2127 85.4261C65.9555 84.4341 67.6951 83.4604 69.7623 82.3002L6.13586 -31.065ZM-0.0928616 -27.5553C-0.0203065 -27.5966 0.0150892 -27.616 -0.186942 -27.503C-0.319947 -27.4287 -0.697533 -27.2179 -1.10409 -26.9867C-1.91587 -26.5252 -3.49067 -25.6187 -5.34635 -24.4161C-9.09439 -21.9871 -15.2049 -17.5932 -21.1801 -10.6161L77.5602 73.9438C72.6442 79.6842 67.7777 83.1071 65.3537 84.6779C64.1601 85.4515 63.2673 85.9573 63.1445 86.0271C63.0824 86.0624 63.051 86.0796 63.2643 85.9604C63.4085 85.8797 63.7903 85.6665 64.2077 85.429L-0.0928616 -27.5553ZM-21.2437 -10.5416C-28.731 -1.77208 -36.139 11.0275 -38.2974 27.605L90.6144 44.3898C88.8796 57.7137 82.9367 67.6466 77.6238 73.8693L-21.2437 -10.5416ZM-38.2854 27.513C-39.0439 33.2739 -38.986 38.0587 -38.9661 39.7334C-38.9605 40.2059 -38.9525 40.6474 -38.9486 40.8662C-38.9436 41.1481 -38.9427 41.2123 -38.9423 41.246C-38.9415 41.3054 -38.9512 40.7132 -38.9214 39.8222L91.0057 44.1778C91.0386 43.1964 91.0516 42.3166 91.0555 41.5727C91.0593 40.8333 91.0544 40.1869 91.0485 39.6934C91.0455 39.4444 91.0421 39.2191 91.0391 39.0328C91.0361 38.8517 91.033 38.6788 91.0309 38.561C91.0286 38.4275 91.0272 38.3498 91.0261 38.2802C91.025 38.2159 91.0247 38.1919 91.0247 38.192C91.0248 38.1933 91.0252 38.2319 91.0255 38.2981C91.0258 38.3648 91.026 38.4677 91.0252 38.5998C91.0237 38.8596 91.0183 39.2704 90.9997 39.792C90.981 40.3159 90.9479 40.9827 90.8873 41.7631C90.8266 42.5454 90.737 43.4594 90.6024 44.4819L-38.2854 27.513ZM89.9301 41.9883C89.9301 41.6951 89.9562 38.3744 89.9145 36.0833L-40.064 38.4459C-40.0495 39.2446 -40.0699 39.0169 -40.0699 41.9883H89.9301ZM89.9152 36.1189C89.4444 9.4132 75.0971 -13.6405 53.1195 -26.3985L-12.1462 86.0309C-18.7789 82.1806 -26.3221 75.8478 -32.0504 66.249C-37.8195 56.5819 -39.9192 46.6613 -40.0646 38.4102L89.9152 36.1189ZM53.1264 -26.3945C50.269 -28.0538 46.4558 -30.1608 45.0261 -30.9669L-18.8161 82.277C-15.3242 84.2456 -14.1788 84.8507 -12.1531 86.0269L53.1264 -26.3945ZM45.0443 -30.9566C8.65286 -51.488 -44.7315 -34.7022 -54.6059 14.5881L72.8614 40.124C63.7107 85.8016 14.2739 100.946 -18.8343 82.2667L45.0443 -30.9566ZM-54.5988 14.5523C-57.6275 29.627 -54.966 41.9925 -53.0498 48.5686L71.7593 12.1998C73.0931 16.777 75.4754 27.1138 72.8542 40.1597L-54.5988 14.5523ZM-53.0307 48.6341C-47.4926 67.5655 -34.9097 82.9664 -18.2149 92.3088L45.2689 -21.1363C50.8528 -18.0116 56.6207 -13.4841 61.6052 -7.26939C66.6036 -1.03732 69.8583 5.70113 71.7402 12.1344L-53.0307 48.6341ZM-18.2703 92.2778C-15.4758 93.8451 -12.683 95.4143 -9.89177 96.9852L53.8691 -16.3045C51.0224 -17.9066 48.1742 -19.5069 45.3243 -21.1053L-18.2703 92.2778ZM-9.78102 97.0474L-6.83959 98.6953L56.6998 -14.7187L53.7583 -16.3667L-9.78102 97.0474ZM106.94 25.0722C106.94 25.0739 106.94 25.063 106.94 25.0345C106.94 25.005 106.94 24.9639 106.941 24.9006C106.941 24.8526 106.943 24.5061 106.944 24.3049C106.947 23.804 106.95 22.816 106.927 21.6476L-23.0466 24.2834C-23.0521 24.0155 -23.0534 23.8164 -23.0538 23.7165C-23.0541 23.6225 -23.0537 23.5862 -23.0541 23.6673C-23.0543 23.7063 -23.0546 23.7562 -23.0551 23.8378C-23.0555 23.9057 -23.0563 24.0247 -23.057 24.1334C-23.0583 24.3638 -23.06 24.6948 -23.06 25.0722H106.94ZM106.92 21.3653C106.949 22.5405 106.928 23.3849 106.928 23.3888C106.927 23.4065 106.927 23.4021 106.929 23.347C106.929 23.3192 106.93 23.2904 106.931 23.2444C106.932 23.203 106.934 23.1467 106.935 23.0872C106.941 22.8651 106.952 22.4264 106.959 21.913C106.985 20.1144 107.049 14.9 106.011 8.51886L-22.3013 29.3973C-22.733 26.744 -22.9029 24.529 -22.9751 22.9776C-23.0455 21.465 -23.0319 20.3428 -23.0269 20.0035C-23.0243 19.8247 -23.0213 19.7207 -23.0241 19.8333C-23.0243 19.843 -23.0346 20.2353 -23.0412 20.5359C-23.0559 21.2091 -23.0857 22.7226 -23.0403 24.5657L106.92 21.3653ZM106.018 8.56001C103.083 -9.54946 93.397 -26.7235 77.3176 -38.6391L-0.0827435 65.8079C-12.5274 56.5858 -20.0841 43.079 -22.308 29.3561L106.018 8.56001ZM77.3135 -38.6422C73.0415 -41.8074 69.2195 -43.9494 67.6044 -44.8449C67.1568 -45.0931 66.7573 -45.3108 66.4962 -45.4529C66.1611 -45.6352 66.0973 -45.6696 65.9507 -45.7497C65.719 -45.8764 66.0354 -45.7074 66.5517 -45.4022L0.384193 66.499C1.09352 66.9184 1.73141 67.2828 2.26144 67.5808C2.78709 67.8763 3.25098 68.1313 3.59162 68.3176C3.76363 68.4116 3.92212 68.4979 4.04727 68.5659C4.10901 68.5995 4.17231 68.6339 4.22228 68.6611C4.27578 68.6901 4.32026 68.7143 4.36197 68.737C4.53945 68.8336 4.57821 68.8552 4.567 68.8489C4.54774 68.8383 4.41422 68.7642 4.20795 68.6449C3.99937 68.5244 3.68528 68.3397 3.29494 68.0993C2.52573 67.6256 1.3396 66.8618 -0.0786058 65.811L77.3135 -38.6422ZM66.5947 -45.3767C65.1119 -46.255 58.3943 -50.2964 48.8246 -52.6547C38.599 -55.1746 12.2031 -58.4081 -10.6638 -37.5273C-28.7156 -21.0434 -30.9585 -0.654197 -31.322 2.11358C-31.7268 5.19506 -31.8236 7.66083 -31.8571 8.88208C-31.8925 10.1728 -31.8811 11.1923 -31.878 11.4737L98.1142 10.0554C98.1165 10.2633 98.1278 11.2147 98.0941 12.4432C98.0623 13.6024 97.969 16.0121 97.5708 19.044C97.2202 21.7127 95.0023 42.0291 76.9965 58.471C54.1756 79.3098 27.8469 76.065 17.7188 73.5691C8.24653 71.2348 1.65664 67.2527 0.341176 66.4735L66.5947 -45.3767ZM-31.8788 11.4006C-31.8738 11.9088 -31.8758 12.4761 -31.8812 13.6702L98.1174 14.257C98.1217 13.3178 98.1309 11.752 98.115 10.1285L-31.8788 11.4006ZM-31.8819 13.9636C-31.8819 13.8781 -31.8815 13.8316 -31.8821 13.9456C-31.8825 14.0067 -31.8841 14.2654 -31.8846 14.5262C-31.8858 15.0585 -31.8852 16.1546 -31.8415 17.4912C-31.7551 20.1334 -31.4777 24.8364 -30.2498 30.5085L96.8069 3.00232C97.8359 7.75518 98.033 11.5305 98.089 13.2407C98.1175 14.1112 98.1152 14.7403 98.1151 14.805C98.115 14.832 98.1148 14.8567 98.1158 14.6838C98.1165 14.5637 98.1181 14.2832 98.1181 13.9636H-31.8819ZM-30.3091 30.2318C-26.8584 46.5135 -17.7894 62.4554 -2.47559 73.9569L75.5944 -29.9906C80.9475 -25.9702 85.8214 -20.7917 89.6819 -14.5579C93.503 -8.38773 95.7048 -2.20094 96.8662 3.27902L-30.3091 30.2318ZM-2.56835 73.8871C1.1733 76.7077 4.44723 78.5938 5.89563 79.4119C6.59667 79.8079 7.29628 80.1885 7.33746 80.211C7.55497 80.3301 7.23536 80.1575 6.79192 79.9022L71.6465 -32.7649C70.7558 -33.2777 69.9835 -33.6992 69.7478 -33.8282C69.3358 -34.0537 69.5816 -33.9202 69.833 -33.7782C70.3822 -33.468 72.7735 -32.1172 75.6872 -29.9208L-2.56835 73.8871ZM6.79413 79.9035C7.82821 80.4987 8.74161 81.0014 9.32858 81.3228C10.1657 81.7811 10.1313 81.7596 10.5688 82.0006L73.3112 -31.8562C72.9484 -32.0562 72.6165 -32.2375 72.3632 -32.3756C72.0736 -32.5337 71.9302 -32.6117 71.7602 -32.7048C71.4447 -32.8775 71.4792 -32.8612 71.6443 -32.7662L6.79413 79.9035Z" fill="white" mask="url(#path-1-inside-1)"/>
<path d="M9.081 24.6421C9.07618 22.8403 8.96133 21.0307 9.09787 19.2382C9.22637 17.5499 9.96769 16.0309 11.0825 14.6895C12.1073 13.4571 13.5016 12.7278 14.8782 11.9613C18.3624 10.0219 21.8428 8.07921 25.3194 6.13315C25.4206 6.07752 25.5138 5.99484 25.6407 6.00025C25.6567 6.02266 25.6824 6.04198 25.6824 6.06052C25.6824 7.79822 25.7941 9.54442 25.6583 11.2721C25.4174 14.2901 23.8488 16.557 21.1148 18.0714C17.2478 20.2189 13.3836 22.3708 9.52194 24.527C9.42706 24.573 9.32974 24.6143 9.23039 24.6506L9.081 24.6421Z" fill="#FD5222"/>
<path d="M26.1935 42C26.2619 39.9747 26.0527 38.0247 26.3065 36.0938C26.5166 34.4931 27.243 33.0828 28.3212 31.8298C29.3691 30.613 30.7878 29.9189 32.1564 29.1466C34.0979 28.0487 36.0497 26.9662 37.9992 25.8807C38.8339 25.4162 39.7075 25.4024 40.5454 25.8139C41.4676 26.2668 41.922 27.0369 41.9617 28.0457C42.0413 30.051 41.439 31.8467 40.2112 33.4567C39.4426 34.4647 38.4376 35.1979 37.3236 35.8167C33.8014 37.7729 30.2807 39.7349 26.7616 41.7029C26.6065 41.7912 26.4433 41.8702 26.1935 42Z" fill="#19A5AA"/>
<path d="M24.8132 42L21.8966 40.3764C19.0956 38.8139 16.2951 37.2519 13.4951 35.6904C11.3951 34.5208 10.0142 32.8108 9.35249 30.5603C9.0633 29.5777 8.92469 28.5751 9.12704 27.574C9.48633 25.7927 11.4461 24.9832 13.0761 25.8966C15.5186 27.2647 17.9803 28.602 20.4053 30.0002C23.2693 31.6522 24.755 34.1137 24.8124 37.3455C24.8363 38.8667 24.8132 40.3918 24.8132 42Z" fill="#19A5AA"/>
<path d="M41.9433 24.6506C41.0109 24.147 40.1501 23.6981 39.3063 23.2226C38.44 22.7338 37.5325 22.3086 36.7307 21.7176C35.0075 20.4481 33.9897 18.7705 33.5538 16.7552C33.3642 15.8797 33.3984 14.9909 33.3984 14.1051C33.3984 13.0934 33.4046 12.0809 33.3984 11.0684C33.3984 10.7907 33.4132 10.6751 33.7371 10.8632C35.3983 11.8261 37.1736 12.6193 38.7236 13.7451C40.4834 15.0235 41.5144 16.7641 41.8586 18.8461C42.0676 20.1052 41.9091 21.3821 41.9409 22.6501C41.9565 23.2893 41.9433 23.9292 41.9433 24.6506Z" fill="#19A5AA"/>
</svg>
