<svg width="206" height="206" viewBox="0 0 206 206" fill="none" xmlns="http://www.w3.org/2000/svg">
<path d="M50.8133 55.2766L51.8433 55.6199L50.8133 55.9632C44.9767 57.3366 40.5133 61.7999 39.14 67.6366L38.7967 68.6666L38.4533 67.6366C37.08 61.7999 32.6167 57.3366 26.78 55.9632L25.75 55.6199L27.4667 55.2766C33.3033 53.9032 37.7667 49.4399 39.14 43.6032L39.4833 42.5732L39.8267 43.6032C40.8567 49.4399 45.32 53.9032 50.8133 55.2766Z" fill="#F2C94C"/>
<path d="M41.5433 80.6831L42.23 81.0264L41.5433 81.3698C37.08 82.3998 33.99 85.8331 32.96 89.9531L32.6167 90.6398L32.2733 89.9531C31.2433 85.4898 27.81 82.3998 23.69 81.3698L23.0033 81.0264L23.69 80.6831C28.1533 79.6531 31.2433 76.2198 32.2733 72.0998L32.6167 71.4131L32.96 72.0998C33.99 76.2198 37.4233 79.6531 41.5433 80.6831Z" fill="#F2C94C"/>
<path d="M165.487 42.2301L166.517 42.5735L165.487 42.9168C158.62 44.6335 153.47 49.7835 151.753 56.6501L151.41 57.6801L151.067 56.6501C149.35 49.7835 144.2 44.6335 137.333 42.9168L136.303 42.5735L137.333 42.2301C144.2 40.5135 149.35 35.3635 151.067 28.4968L151.41 27.4668L151.753 28.4968C153.127 35.3635 158.62 40.8568 165.487 42.2301Z" fill="#0C6E84"/>
<path d="M91.3267 145.917L92.0133 146.26L91.3267 146.604C86.8633 147.634 83.0867 151.41 82.0567 155.874L81.7133 156.56L81.37 155.874C80.34 151.41 76.5633 147.634 72.1 146.604L71.4133 146.26L72.1 145.917C76.5633 144.887 80.34 141.11 81.37 136.647L81.7133 135.96L82.0567 136.647C83.0867 141.11 86.52 144.544 91.3267 145.917Z" fill="#0C6E84"/>
<path d="M157.933 163.771H116.733C114.33 163.771 112.27 165.831 112.27 168.234V181.967C112.27 184.371 114.33 186.431 116.733 186.431H157.933C160.337 186.431 162.397 184.371 162.397 181.967V168.234C162.053 165.487 160.337 163.771 157.933 163.771Z" fill="#FF7345"/>
<path d="M111.927 115.704C111.927 109.181 109.867 97.8505 109.867 97.8505C109.867 97.8505 108.837 92.0139 113.3 90.6405C117.077 89.2672 120.167 93.3872 121.197 95.1039C122.227 97.1639 123.943 101.627 128.75 111.584C129.093 112.271 129.437 112.957 129.78 113.987C135.617 106.434 139.393 96.8205 139.393 86.5205C139.393 61.8005 119.48 41.8872 94.76 41.8872C70.04 41.8872 50.1266 61.8005 50.1266 86.5205C50.1266 111.241 70.04 131.154 94.76 131.154C100.597 131.154 106.09 130.124 111.24 128.064C111.24 123.601 111.927 119.824 111.927 115.704Z" fill="#F2C94C"/>
<path d="M109.867 98.1931C109.867 98.1931 108.837 92.3564 113.3 90.983C117.077 89.6097 120.167 93.7297 121.197 95.4464C121.883 96.4764 122.57 98.8797 124.287 102.313C126.69 97.5064 128.063 92.3564 128.063 86.5197C128.063 67.9797 112.957 52.873 94.4167 52.873C75.8767 52.873 60.77 67.9797 60.77 86.5197C60.77 105.06 75.8767 120.166 94.4167 120.166C100.94 120.166 106.777 118.45 111.927 115.36C111.927 108.493 109.867 98.1931 109.867 98.1931Z" fill="#FFE37B"/>
<path d="M109.867 93.7298C109.867 91.6698 109.18 89.9532 108.15 88.5798C107.12 87.2065 105.403 86.1765 103.343 85.8332C104.03 85.4899 104.373 85.4898 104.373 85.1465C104.717 85.1465 105.06 84.8032 105.403 84.4599C107.12 83.0865 107.807 81.3699 107.807 78.6232C107.807 76.5632 107.12 74.5032 105.747 72.7865C105.06 71.7565 103.687 71.0699 102.313 70.7265C101.97 70.7265 101.283 70.3832 100.94 70.3832V66.2632H95.1033V70.0399H91.3267V66.2632H85.49V70.0399H83.7733H78.9667V76.2199H83.7733V96.4765H78.9667V102.657H83.7733H85.49V106.433H91.3267V102.657H95.1033V106.433H100.94V102.657C104.03 102.313 106.433 101.283 107.807 99.9099C109.18 97.8498 109.867 96.1332 109.867 93.7298ZM99.2233 77.2499C100.253 77.5932 100.597 78.6232 100.597 79.9965C100.597 81.3698 100.253 82.3999 99.2233 82.7432C98.1933 83.0865 96.82 83.4298 94.76 83.4298H91.3267V76.5632H94.76C96.82 76.2198 98.1933 76.5632 99.2233 77.2499ZM100.94 95.7898C99.91 96.1332 98.1933 96.4765 96.1333 96.4765H91.3267V89.2665H95.4467C97.85 89.2665 99.5667 89.6099 100.597 89.9532C101.627 90.2965 102.313 91.3265 102.313 93.0432C102.313 94.4165 101.97 95.4465 100.94 95.7898Z" fill="white"/>
<path d="M159.307 104.03C154.843 92.7004 143.857 68.6671 137.333 60.4271C133.557 55.6204 129.093 55.2771 126.69 55.6204C134.243 63.5171 139.05 74.5038 139.05 86.5205C139.05 96.8204 135.617 106.434 129.437 113.987C129.093 113.3 128.75 112.27 128.407 111.584C123.6 101.627 121.883 96.8204 120.853 95.1038C120.167 93.3871 117.077 89.2671 113.3 90.6404C109.18 92.0138 109.867 97.8504 109.867 97.8504C109.867 97.8504 112.27 109.18 111.927 115.704C111.927 122.227 109.867 128.064 111.927 136.647C112.27 138.364 112.957 140.08 113.987 141.11C114.33 141.797 114.673 142.827 115.36 143.857C118.107 149.35 123.943 155.53 123.943 155.53V163.77H155.873C155.53 159.307 155.187 152.784 156.217 146.26C157.933 129.437 162.74 113.644 159.307 104.03Z" fill="#27A8AB"/>
<path d="M157.247 171.667C157.247 173.383 155.873 175.1 153.813 175.1C152.097 175.1 150.38 173.727 150.38 171.667C150.38 169.607 151.753 168.233 153.813 168.233C155.53 168.233 157.247 169.95 157.247 171.667Z" fill="white"/>
</svg>
