<svg width="92" height="48" viewBox="0 0 92 48" fill="none" xmlns="http://www.w3.org/2000/svg">
<path d="M35 37.5912C35 38.7806 34.5372 39.4706 33.633 39.8384C30.1192 41.2647 25.9584 42 22.0002 42C18.042 42 13.8808 41.2647 10.367 39.8384C9.46276 39.4706 9 38.7806 9 37.5912V6H35V37.5912Z" fill="#1D1616"/>
<path d="M15.6479 25.1935C11.9494 22.9138 10.7279 21.9056 10.6237 20.4102C10.6059 20.106 10.676 19.5945 10.8047 19.2288L10.4559 19C10.1772 19.4383 10 20.0162 10 20.5462C10 21.4101 10.2797 22.0635 10.6234 22.5856C11.1433 23.3756 11.6902 23.8721 13.0364 24.8683C14.4874 25.9434 15.4774 27.1983 16.0482 28.5108H16.2538V27.0211C18.2156 28.119 19.9439 29.1528 20.7944 31H21C20.6674 29.086 19.5709 27.6103 15.6479 25.1935Z" fill="white"/>
<path d="M25.982 19.5257C25.1979 19.891 24.6577 20.3865 24.1756 21.0967L25.7776 21.0103C25.8354 20.2716 25.9291 19.7806 25.982 19.5257ZM31.7579 25.4616C31.919 25.0553 32.0231 24.6653 32.0509 24.1705L29.7098 24.0326C29.6037 24.7131 29.429 25.3047 29.2428 25.7896L31.7579 25.4616ZM29.2232 19.4319C29.3921 19.8999 29.5185 20.3536 29.6109 20.7904L30.9878 20.7114C30.5146 20.1469 29.9097 19.703 29.2232 19.4319ZM28.5981 20.8483C28.3636 20.0046 28.0821 19.4173 27.9348 19.1415C27.8407 19.1354 27.7457 19.1327 27.6493 19.1327C27.4916 19.1327 27.3316 19.154 27.1781 19.1713C26.9501 19.7613 26.7652 20.3583 26.6137 20.9629L28.5981 20.8483ZM29.7471 21.6142C29.8202 22.2231 29.8281 22.7944 29.7902 23.3217L32.0434 23.198C31.9856 22.6667 31.8402 22.1635 31.6224 21.7036L29.7471 21.6142ZM28.9815 23.3654C28.9587 22.7002 28.8787 22.0984 28.7709 21.5674L26.4977 21.46C26.3407 22.1787 26.2384 22.8795 26.1901 23.5189L28.9815 23.3654ZM29.331 18.316L29.5975 17.9277L29.1843 17.3567L29.2536 17.2299L30.4146 17.8795L30.1612 18.6755C30.348 18.7697 30.5201 18.8877 30.7497 19.0456L31.5003 17.7657L29.5583 16.7125H25.2661L21.7826 18.8877C22.4375 19.3587 23.0391 19.869 23.4672 20.3824C24.3997 18.9724 26.0402 18.0737 27.664 18.0737C28.1954 18.0737 28.8133 18.132 29.331 18.316ZM20.7437 18.1889L22.6664 16.9924C22.2889 16.7986 21.8718 16.6746 21.3757 16.6674C20.7134 16.6566 19.5948 16.9738 19.0529 17.0592C19.2953 17.231 20.1539 17.8006 20.7437 18.1889ZM21.1376 13.6834C20.455 13.5285 20.0745 13.616 19.6826 14.0036C19.874 14.0995 20.1144 14.1514 20.3802 14.1314C20.7633 14.1033 21.0021 13.8647 21.1376 13.6834ZM31.9748 30.5249H31.7321C31.7321 29.1359 30.5041 28.7584 29.2199 28.7584H25.2051C25.3347 29.4426 25.3948 30.244 25.2946 31H25.095C24.723 27.8811 23.0244 26.3349 20.649 24.6805V26.1004H20.4498C19.8185 24.6355 18.4317 23.2604 17.1178 22.2848H17.1182C16.769 22.0262 16.4068 21.7582 16.0492 21.4935V23.0242H15.8497C15.2928 21.5061 14.2817 20.3726 12.84 19.0236C11.2841 17.5685 10.6554 16.6979 10.2913 15.6973C10.0708 15.091 10.0084 14.6017 10.0003 13.9359C9.98558 12.7454 10.5656 11.6699 11.2884 11.2683V11.8441C10.9294 12.3371 10.7443 12.9599 10.743 13.5936C10.7423 14.1778 10.8762 14.8281 11.1568 15.3821C12.0333 17.1147 14.9861 19.2401 16.8611 20.545C22.6925 24.604 23.8556 25.3125 24.8243 27.4657C24.9327 27.7059 25.0398 28.0288 25.129 28.4023C25.9716 28.2677 29.0279 27.7852 29.5913 27.6924C29.6994 27.6747 29.9241 27.6453 30.0404 27.6381C30.5665 27.2928 30.9787 26.8527 31.3389 26.3034L29.105 26.1241C28.9894 26.3898 28.8744 26.6131 28.7741 26.792H28.5922C28.653 26.5565 28.7062 26.3244 28.7519 26.0963L28.1804 26.0512V25.9255L28.7993 25.8462C28.9172 25.1898 28.974 24.5691 28.9861 23.9893L26.1705 23.8239C26.1551 24.1228 26.1529 24.4057 26.1623 24.668H25.9814C25.922 24.3752 25.8753 24.0862 25.8387 23.8042L25.2217 23.767V23.5714L25.808 23.5392C25.7257 22.7656 25.7208 22.0442 25.7511 21.4247L24.1044 21.3461C24.1822 21.4962 24.2628 21.6487 24.3197 21.8144C24.6747 22.8446 24.5904 24.0526 24.4735 24.609H24.2739C24.2442 23.9659 24.0358 23.178 23.8389 22.6962C23.3833 21.5826 22.3617 20.5986 20.649 19.4566V20.8802H20.4498C19.8799 19.0103 18.4624 17.9704 16.3546 16.8467C14.6151 15.9202 14.0743 14.804 14.1732 13.0762L14.7608 13.437C14.9113 15.0534 16.1073 15.986 17.3589 15.9762C18.0967 15.9704 18.7871 15.8694 19.4546 15.7298C20.4184 15.5282 21.3104 15.3557 22.0544 15.6292V14.6753H21.4698C21.2604 14.863 20.8365 15.0802 20.2127 15.0907C19.5262 15.1039 18.2276 14.6936 18.2276 13.1883C18.2276 11.881 19.2943 11.6719 20.1621 11.6719C20.6271 11.6719 21.3999 11.6546 21.6612 11.6394C21.8551 11.6265 22.0008 11.596 22.0949 11.4994C22.1935 11.3988 22.2236 11.2951 22.2464 11.1616C22.2732 10.9996 22.2732 10.8342 22.2732 10.5533V9.5984H18.2505V11.2521L16.7282 10.6516V10.2555H17.4568V9.5984H14.7428V8.22499H13.8172C13.3224 8.22499 12.7522 8.58486 12.712 9.28191C12.6738 9.94981 12.9638 10.513 13.6265 10.513H13.7457V11.3134H13.6265C12.4651 11.3134 11.5895 10.4079 11.5895 9.20566C11.5895 7.9539 12.6173 7 13.86 7H15.8222V8.37341H23.4535V10.4022C23.4535 10.7438 23.4365 11.2033 23.4036 11.4933C23.381 11.7048 23.3085 12.085 22.9231 12.3906C22.6912 12.5746 22.3405 12.6489 21.7712 12.6505C21.5854 12.6516 21.0439 12.6428 20.3953 12.6007C19.5262 12.5441 19.2793 12.8918 19.2446 13.2151C19.2371 13.2835 19.2375 13.3503 19.2446 13.413C19.6509 13.086 20.2277 12.8552 20.8819 13.0694C22.0335 13.4448 22.3624 13.4784 22.9623 12.9897L23.0224 13.1297C22.9574 13.2331 22.8425 13.3825 22.6743 13.5146H23.2305V16.6417L24.9621 15.5644H29.8219C29.8219 15.5644 31.8758 16.6779 32.2142 16.8623C32.5127 17.0249 32.6296 17.2211 32.676 17.5105C32.7149 17.7515 32.6548 18.0575 32.5405 18.2537C32.4686 18.3753 31.9114 19.3255 31.6155 19.8324C32.4418 20.7606 33 22.0581 33 23.5033C33 24.8137 32.5326 26.5036 31.0162 27.7601C31.6828 27.9855 32.11 28.3633 32.4461 28.8594L31.9748 30.5249Z" fill="white"/>
<path d="M21.9773 38.3379H21.0948V35.4798H21.9368C23.0946 35.4798 23.5391 35.8697 23.5391 36.8511C23.5391 37.9119 22.9591 38.3379 21.9773 38.3379ZM21.9074 32.666C22.6068 32.666 23.082 32.8379 23.082 33.6832C23.082 34.5845 22.4456 34.8319 21.7199 34.8319H21.0948V32.666H21.9074ZM23.315 35.0768C23.9416 34.9613 24.5407 34.4098 24.5407 33.5765C24.5407 32.8251 24.2583 32 22.3021 32H19V32.0595C19.1009 32.0939 19.258 32.1854 19.3621 32.3013C19.5862 32.5494 19.6599 32.9187 19.6706 33.4106V39H22.4064C23.9112 39 25 38.3507 25 36.8642C25 35.6538 24.1683 35.1399 23.315 35.0768Z" fill="white"/>
<path d="M14.2916 32.666H15.3398C16.2135 32.666 16.6695 32.9308 16.6695 33.895C16.6695 34.7553 16.0732 35.2646 15.1172 35.2646H14.2916V32.666ZM17.0596 39H19L16.52 35.7077C17.5139 35.4319 18.2583 34.8669 18.2583 33.8404C18.2583 32.6356 17.5651 32 15.7504 32H12V32.0596C12.1382 32.1099 12.2922 32.2024 12.3939 32.3066C12.6567 32.5749 12.7348 32.9854 12.7348 33.5402V39H14.2916V35.8966H14.8602L17.0596 39Z" fill="white"/>
<path d="M32.0143 33.0342C32.4378 33.2718 32.5657 33.5826 32.5681 33.5857C32.5882 33.6091 32.634 33.6022 32.634 33.6022L32.9785 32.4401C32.9785 32.4401 32.3609 32 30.8895 32C28.6651 32 27 33.1119 27 35.5459C27 38.2883 28.9832 39 30.7329 39C32.3609 39 33 38.4853 33 38.4853V37.69C33 37.69 32.425 38.2219 31.1918 38.2219C30.1735 38.2219 28.6796 37.7612 28.6474 35.5067C28.6169 33.4255 29.5323 32.7465 30.7575 32.7465C31.441 32.7465 31.782 32.905 32.0143 33.0342Z" fill="white"/>
<path d="M37.0005 38.9293C37.1469 38.9293 37.2769 38.918 37.2769 38.7416C37.2769 38.5987 37.1486 38.5723 37.029 38.5723H36.7944V38.9293H37.0005ZM36.7944 39.5773H36.6212V38.4238H37.0551C37.3245 38.4238 37.457 38.5245 37.457 38.7522C37.457 38.9578 37.3294 39.0472 37.1636 39.0683L37.4862 39.5773H37.2929L36.9925 39.0767H36.7944V39.5773ZM37.0033 39.8325C37.4497 39.8325 37.8022 39.4791 37.8022 38.9975C37.8022 38.5245 37.4497 38.1672 37.0033 38.1672C36.5514 38.1672 36.1989 38.5245 36.1989 38.9975C36.1989 39.4791 36.5514 39.8325 37.0033 39.8325ZM36 38.9975C36 38.4238 36.4599 38 37.0033 38C37.5411 38 38 38.4238 38 38.9975C38 39.5773 37.5411 40 37.0033 40C36.4599 40 36 39.5773 36 38.9975Z" fill="#1D1616"/>
<path d="M50.2386 33V17.352H55.8786C56.7106 17.352 57.4866 17.432 58.2066 17.592C58.9426 17.752 59.5826 18.024 60.1266 18.408C60.6706 18.776 61.1026 19.272 61.4226 19.896C61.7426 20.52 61.9026 21.296 61.9026 22.224C61.9026 23.376 61.6466 24.328 61.1346 25.08C60.6386 25.816 59.9666 26.368 59.1186 26.736L62.6706 33H58.7106L55.7106 27.36H53.7666V33H50.2386ZM53.7666 24.552H55.5906C56.5186 24.552 57.2226 24.36 57.7026 23.976C58.1986 23.576 58.4466 22.992 58.4466 22.224C58.4466 21.456 58.1986 20.92 57.7026 20.616C57.2226 20.312 56.5186 20.16 55.5906 20.16H53.7666V24.552ZM64.9574 33V17.352H70.3094C71.1254 17.352 71.8774 17.416 72.5654 17.544C73.2694 17.656 73.8774 17.864 74.3894 18.168C74.9174 18.472 75.3254 18.872 75.6134 19.368C75.9174 19.864 76.0694 20.488 76.0694 21.24C76.0694 21.592 76.0214 21.944 75.9254 22.296C75.8294 22.648 75.6934 22.976 75.5174 23.28C75.3414 23.584 75.1254 23.856 74.8694 24.096C74.6294 24.336 74.3494 24.512 74.0294 24.624V24.72C74.4294 24.816 74.7974 24.968 75.1334 25.176C75.4694 25.368 75.7654 25.616 76.0214 25.92C76.2774 26.224 76.4774 26.584 76.6214 27C76.7654 27.4 76.8374 27.864 76.8374 28.392C76.8374 29.192 76.6774 29.88 76.3574 30.456C76.0534 31.032 75.6214 31.512 75.0614 31.896C74.5174 32.264 73.8774 32.544 73.1414 32.736C72.4054 32.912 71.6134 33 70.7654 33H64.9574ZM68.4854 23.616H70.1414C71.0054 23.616 71.6294 23.448 72.0134 23.112C72.4134 22.776 72.6134 22.328 72.6134 21.768C72.6134 21.16 72.4134 20.728 72.0134 20.472C71.6134 20.216 70.9974 20.088 70.1654 20.088H68.4854V23.616ZM68.4854 30.264H70.4774C72.4134 30.264 73.3814 29.56 73.3814 28.152C73.3814 27.464 73.1414 26.976 72.6614 26.688C72.1814 26.384 71.4534 26.232 70.4774 26.232H68.4854V30.264ZM86.0166 33.288C85.0246 33.288 84.0886 33.12 83.2086 32.784C82.3286 32.432 81.5526 31.92 80.8806 31.248C80.2246 30.576 79.7046 29.744 79.3206 28.752C78.9366 27.744 78.7446 26.584 78.7446 25.272C78.7446 23.976 78.9446 22.824 79.3446 21.816C79.7446 20.792 80.2806 19.928 80.9526 19.224C81.6246 18.52 82.4086 17.984 83.3046 17.616C84.2006 17.248 85.1446 17.064 86.1366 17.064C87.1446 17.064 88.0486 17.272 88.8486 17.688C89.6486 18.088 90.3126 18.56 90.8406 19.104L88.9686 21.36C88.5686 20.992 88.1446 20.696 87.6966 20.472C87.2646 20.232 86.7686 20.112 86.2086 20.112C85.6806 20.112 85.1766 20.232 84.6966 20.472C84.2326 20.696 83.8246 21.024 83.4726 21.456C83.1366 21.888 82.8646 22.416 82.6566 23.04C82.4646 23.664 82.3686 24.368 82.3686 25.152C82.3686 26.768 82.7126 28.024 83.4006 28.92C84.0886 29.8 85.0086 30.24 86.1606 30.24C86.8006 30.24 87.3686 30.104 87.8646 29.832C88.3766 29.544 88.8246 29.192 89.2086 28.776L91.0806 30.984C89.7686 32.52 88.0806 33.288 86.0166 33.288Z" fill="#1D1616"/>
</svg>
