<svg width="49" height="48" viewBox="0 0 49 48" fill="none" xmlns="http://www.w3.org/2000/svg">
<path d="M6.89999 24.5333V9.60001H43.1667V39.4667H6.89999V24.5333ZM21.1565 25.635V18.1683H26.484C31.3612 18.1683 31.8615 18.2173 32.6118 18.6579C34.1875 19.5882 34.9629 22.8686 34.4627 26.296C33.9124 29.8947 32.8119 30.727 28.8601 30.6046L26.534 30.5312L26.459 24.8516L26.409 19.1475H22.157V33.1506L28.1097 33.0527L34.0375 32.9792L35.4881 32.2938C37.8142 31.1677 38.8397 29.2092 39.0898 25.3902C39.2399 22.991 38.8897 20.2981 38.2394 19.0496C37.6891 17.9725 36.6887 16.9932 35.5382 16.3812C34.5627 15.8426 34.2876 15.8426 22.6072 15.7692L10.6517 15.6957V18.1683H16.9046V33.1016H21.1565V25.635Z" fill="#1D1616"/>
</svg>
