<svg width="30" height="30" viewBox="0 0 30 30" fill="none" xmlns="http://www.w3.org/2000/svg">
<path d="M10.3337 18.35C10.1037 18.35 9.94875 18.3725 9.86875 18.395V19.8675C9.96375 19.89 10.0825 19.8963 10.2462 19.8963C10.845 19.8963 11.2137 19.5938 11.2137 19.0825C11.2137 18.625 10.8962 18.35 10.3337 18.35ZM14.6925 18.365C14.4425 18.365 14.28 18.3875 14.1837 18.41V21.6725C14.28 21.695 14.435 21.695 14.575 21.695C15.5962 21.7025 16.2612 21.14 16.2612 19.95C16.2687 18.9125 15.6625 18.365 14.6925 18.365Z" fill="black"/>
<path d="M17.5 2.5H7.5C6.83696 2.5 6.20107 2.76339 5.73223 3.23223C5.26339 3.70107 5 4.33696 5 5V25C5 25.663 5.26339 26.2989 5.73223 26.7678C6.20107 27.2366 6.83696 27.5 7.5 27.5H22.5C23.163 27.5 23.7989 27.2366 24.2678 26.7678C24.7366 26.2989 25 25.663 25 25V10L17.5 2.5ZM11.8725 20.2375C11.4863 20.6 10.9162 20.7625 10.2525 20.7625C10.1238 20.7639 9.99516 20.7564 9.8675 20.74V22.5225H8.75V17.6025C9.25432 17.5273 9.7639 17.493 10.2737 17.5C10.97 17.5 11.465 17.6325 11.7987 17.8988C12.1163 18.1512 12.3312 18.565 12.3312 19.0525C12.33 19.5425 12.1675 19.9563 11.8725 20.2375ZM16.6313 21.9312C16.1063 22.3675 15.3075 22.575 14.3313 22.575C13.7463 22.575 13.3325 22.5375 13.0513 22.5V17.6038C13.5558 17.5301 14.0652 17.4954 14.575 17.5C15.5212 17.5 16.1363 17.67 16.6163 18.0325C17.135 18.4175 17.46 19.0312 17.46 19.9125C17.46 20.8663 17.1112 21.525 16.6313 21.9312ZM21.25 18.4625H19.335V19.6012H21.125V20.5188H19.335V22.5237H18.2025V17.5375H21.25V18.4625ZM17.5 11.25H16.25V5L22.5 11.25H17.5Z" fill="black"/>
</svg>
